<svg xmlns="http://www.w3.org/2000/svg" xmlns:xlink="http://www.w3.org/1999/xlink" width="37" zoomAndPan="magnify" viewBox="0 0 27.75 27.749998" height="37" preserveAspectRatio="xMidYMid meet" version="1.0"><defs><clipPath id="ffa2b2f353"><path d="M 0 0 L 26.757812 0 L 26.757812 26.757812 L 0 26.757812 Z M 0 0 " clip-rule="nonzero"/></clipPath></defs><g clip-path="url(#ffa2b2f353)"><path fill="#000000" d="M 13.378906 2.433594 C 7.332031 2.433594 2.433594 7.332031 2.433594 13.378906 C 2.433594 19.425781 7.332031 24.328125 13.378906 24.328125 C 19.425781 24.328125 24.328125 19.425781 24.328125 13.378906 C 24.328125 7.332031 19.425781 2.433594 13.378906 2.433594 Z M 0 13.378906 C 0 5.988281 5.988281 0 13.378906 0 C 20.769531 0 26.757812 5.988281 26.757812 13.378906 C 26.757812 20.769531 20.769531 26.757812 13.378906 26.757812 C 5.988281 26.757812 0 20.769531 0 13.378906 Z M 0 13.378906 " fill-opacity="1" fill-rule="evenodd"/></g><path fill="#000000" d="M 12.164062 9.324219 L 14.597656 9.324219 L 14.597656 21.488281 L 12.164062 21.488281 Z M 12.164062 9.324219 " fill-opacity="1" fill-rule="evenodd"/><path fill="#000000" d="M 12.164062 5.269531 L 14.597656 5.269531 L 14.597656 7.972656 L 12.164062 7.972656 Z M 12.164062 5.269531 " fill-opacity="1" fill-rule="evenodd"/></svg>