<svg xmlns="http://www.w3.org/2000/svg" xmlns:xlink="http://www.w3.org/1999/xlink" width="37" zoomAndPan="magnify" viewBox="0 0 27.75 27.749998" height="37" preserveAspectRatio="xMidYMid meet" version="1.0"><defs><clipPath id="47eb9fa9af"><path d="M 0 0 L 26.757812 0 L 26.757812 26.757812 L 0 26.757812 Z M 0 0 " clip-rule="nonzero"/></clipPath></defs><g clip-path="url(#47eb9fa9af)"><path fill="#ffffff" d="M 13.542969 2.460938 C 7.421875 2.460938 2.460938 7.421875 2.460938 13.542969 C 2.460938 19.660156 7.421875 24.621094 13.542969 24.621094 C 19.660156 24.621094 24.621094 19.660156 24.621094 13.542969 C 24.621094 7.421875 19.660156 2.460938 13.542969 2.460938 Z M 0 13.542969 C 0 6.0625 6.0625 0 13.542969 0 C 21.019531 0 27.085938 6.0625 27.085938 13.542969 C 27.085938 21.019531 21.019531 27.085938 13.542969 27.085938 C 6.0625 27.085938 0 21.019531 0 13.542969 Z M 0 13.542969 " fill-opacity="1" fill-rule="evenodd"/></g><path fill="#ffffff" d="M 12.3125 9.4375 L 14.773438 9.4375 L 14.773438 21.75 L 12.3125 21.75 Z M 12.3125 9.4375 " fill-opacity="1" fill-rule="evenodd"/><path fill="#ffffff" d="M 12.3125 5.335938 L 14.773438 5.335938 L 14.773438 8.070312 L 12.3125 8.070312 Z M 12.3125 5.335938 " fill-opacity="1" fill-rule="evenodd"/></svg>