<svg xmlns="http://www.w3.org/2000/svg" xmlns:xlink="http://www.w3.org/1999/xlink" width="37" zoomAndPan="magnify" viewBox="0 0 27.75 27.749998" height="37" preserveAspectRatio="xMidYMid meet" version="1.0"><defs><clipPath id="46c0c80e1b"><path d="M 0 0 L 27.503906 0 L 27.503906 27.503906 L 0 27.503906 Z M 0 0 " clip-rule="nonzero"/></clipPath><clipPath id="7ac6e2b58d"><path d="M 0 5.945312 L 0 21.429688 C 0 24.714844 2.664062 27.375 5.945312 27.375 L 21.429688 27.375 C 24.714844 27.375 27.375 24.714844 27.375 21.429688 L 27.375 5.945312 C 27.375 2.664062 24.714844 0 21.429688 0 L 5.945312 0 C 2.664062 0 0 2.664062 0 5.945312 Z M 0 5.945312 " clip-rule="nonzero"/></clipPath></defs><g clip-path="url(#46c0c80e1b)"><g clip-path="url(#7ac6e2b58d)"><path fill="#000000" d="M -7.605469 2.484375 L -7.605469 25.960938 C -7.605469 26.800781 -6.929688 27.484375 -6.09375 27.484375 L 33.246094 27.484375 C 34.082031 27.484375 34.761719 26.800781 34.761719 25.960938 L 34.761719 2.484375 L 14.363281 15.054688 C 13.882812 15.351562 13.273438 15.351562 12.789062 15.054688 Z M 13.578125 11.960938 L -5.808594 0.015625 L 32.960938 0.015625 Z M 13.578125 11.960938 " fill-opacity="1" fill-rule="evenodd"/></g></g></svg>