<svg xmlns="http://www.w3.org/2000/svg" xmlns:xlink="http://www.w3.org/1999/xlink" width="37" zoomAndPan="magnify" viewBox="0 0 27.75 27.749998" height="37" preserveAspectRatio="xMidYMid meet" version="1.0"><defs><clipPath id="59445be2d4"><path d="M 0 0 L 27.503906 0 L 27.503906 27.503906 L 0 27.503906 Z M 0 0 " clip-rule="nonzero"/></clipPath><clipPath id="ee5058b0c7"><path d="M 0 5.945312 L 0 21.429688 C 0 24.714844 2.664062 27.375 5.945312 27.375 L 21.429688 27.375 C 24.714844 27.375 27.375 24.714844 27.375 21.429688 L 27.375 5.945312 C 27.375 2.664062 24.714844 0 21.429688 0 L 5.945312 0 C 2.664062 0 0 2.664062 0 5.945312 Z M 0 5.945312 " clip-rule="nonzero"/></clipPath></defs><g clip-path="url(#59445be2d4)"><g clip-path="url(#ee5058b0c7)"><path fill="#ffffff" d="M -7.578125 2.472656 L -7.578125 25.839844 C -7.578125 26.675781 -6.898438 27.359375 -6.058594 27.359375 L 33.433594 27.359375 C 34.273438 27.359375 34.953125 26.675781 34.953125 25.839844 L 34.953125 2.472656 L 14.476562 14.984375 C 13.992188 15.28125 13.382812 15.28125 12.894531 14.984375 Z M 13.6875 11.90625 L -5.769531 0.015625 L 33.144531 0.015625 Z M 13.6875 11.90625 " fill-opacity="1" fill-rule="evenodd"/></g></g></svg>