<svg xmlns="http://www.w3.org/2000/svg" xmlns:xlink="http://www.w3.org/1999/xlink" width="39" zoomAndPan="magnify" viewBox="0 0 29.25 27.749999" height="37" preserveAspectRatio="xMidYMid meet" version="1.0"><defs><clipPath id="c66535097b"><path d="M 4 4 L 24 4 L 24 26.550781 L 4 26.550781 Z M 4 4 " clip-rule="nonzero"/></clipPath><clipPath id="c6ba1efdc8"><path d="M 0 0.226562 L 27.789062 0.226562 L 27.789062 15 L 0 15 Z M 0 0.226562 " clip-rule="nonzero"/></clipPath></defs><g clip-path="url(#c66535097b)"><path fill="#000000" d="M 23.648438 13.605469 Z M 23.648438 13.605469 L 13.898438 4.960938 L 4.136719 13.609375 L 4.136719 25.96875 C 4.136719 26.289062 4.394531 26.546875 4.714844 26.546875 L 10.8125 26.546875 L 10.8125 21.125 C 10.8125 20.808594 11.070312 20.546875 11.386719 20.546875 L 16.398438 20.546875 C 16.71875 20.546875 16.972656 20.808594 16.972656 21.125 L 16.972656 26.546875 L 23.074219 26.546875 C 23.394531 26.546875 23.648438 26.289062 23.648438 25.96875 Z M 4.136719 13.609375 Z M 4.136719 13.609375 " fill-opacity="1" fill-rule="nonzero"/></g><g clip-path="url(#c6ba1efdc8)"><path fill="#000000" d="M 13.839844 0.226562 L 0 12.496094 L 1.457031 14.140625 L 13.898438 3.117188 L 26.332031 14.140625 L 27.789062 12.496094 L 13.949219 0.226562 L 13.898438 0.289062 Z M 13.839844 0.226562 " fill-opacity="1" fill-rule="nonzero"/></g><path fill="#000000" d="M 4.136719 1.992188 L 7.648438 1.992188 L 7.617188 4.074219 L 4.136719 7.21875 Z M 4.136719 1.992188 " fill-opacity="1" fill-rule="nonzero"/></svg>