<svg xmlns="http://www.w3.org/2000/svg" xmlns:xlink="http://www.w3.org/1999/xlink" width="39" zoomAndPan="magnify" viewBox="0 0 29.25 27.749999" height="37" preserveAspectRatio="xMidYMid meet" version="1.0"><defs><clipPath id="398474ac9d"><path d="M 4 4 L 24 4 L 24 26.550781 L 4 26.550781 Z M 4 4 " clip-rule="nonzero"/></clipPath><clipPath id="ff0e1c5cda"><path d="M 0 0.226562 L 27.789062 0.226562 L 27.789062 15 L 0 15 Z M 0 0.226562 " clip-rule="nonzero"/></clipPath></defs><g clip-path="url(#398474ac9d)"><path fill="#ffffff" d="M 23.738281 13.640625 Z M 23.738281 13.640625 L 13.949219 4.972656 L 4.152344 13.644531 L 4.152344 26.035156 C 4.152344 26.355469 4.414062 26.613281 4.734375 26.613281 L 10.851562 26.613281 L 10.851562 21.179688 C 10.851562 20.859375 11.109375 20.601562 11.429688 20.601562 L 16.460938 20.601562 C 16.78125 20.601562 17.035156 20.859375 17.035156 21.179688 L 17.035156 26.613281 L 23.160156 26.613281 C 23.480469 26.613281 23.734375 26.355469 23.734375 26.035156 L 23.734375 13.640625 Z M 4.152344 13.644531 Z M 4.152344 13.644531 " fill-opacity="1" fill-rule="nonzero"/></g><g clip-path="url(#ff0e1c5cda)"><path fill="#ffffff" d="M 13.890625 0.226562 L 0 12.527344 L 1.464844 14.179688 L 13.949219 3.125 L 26.429688 14.179688 L 27.890625 12.527344 L 14.003906 0.226562 L 13.949219 0.289062 Z M 13.890625 0.226562 " fill-opacity="1" fill-rule="nonzero"/></g><path fill="#ffffff" d="M 4.152344 2 L 7.675781 2 L 7.644531 4.085938 L 4.152344 7.238281 Z M 4.152344 2 " fill-opacity="1" fill-rule="nonzero"/></svg>