<svg xmlns="http://www.w3.org/2000/svg" xmlns:xlink="http://www.w3.org/1999/xlink" width="38" zoomAndPan="magnify" viewBox="0 0 28.5 28.5" height="38" preserveAspectRatio="xMidYMid meet" version="1.0"><defs><clipPath id="083a046993"><path d="M 0 0 L 27.273438 0 L 27.273438 27.273438 L 0 27.273438 Z M 0 0 " clip-rule="nonzero"/></clipPath></defs><g clip-path="url(#083a046993)"><path fill="#ffffff" d="M 13.78125 0 C 6.183594 0 0 6.183594 0 13.78125 C 0 21.378906 6.183594 27.558594 13.78125 27.558594 C 21.378906 27.558594 27.558594 21.378906 27.558594 13.78125 C 27.558594 6.183594 21.378906 0 13.78125 0 Z M 6.039062 23.011719 C 6.167969 18.851562 9.585938 15.503906 13.78125 15.503906 C 17.972656 15.503906 21.390625 18.851562 21.519531 23.011719 C 19.421875 24.773438 16.722656 25.835938 13.78125 25.835938 C 10.835938 25.835938 8.136719 24.773438 6.039062 23.011719 Z M 9.472656 9.472656 C 9.472656 7.097656 11.40625 5.167969 13.78125 5.167969 C 16.152344 5.167969 18.085938 7.097656 18.085938 9.472656 C 18.085938 11.847656 16.152344 13.78125 13.78125 13.78125 C 11.40625 13.78125 9.472656 11.847656 9.472656 9.472656 Z M 23.074219 21.449219 C 22.453125 18.230469 20.195312 15.59375 17.203125 14.429688 C 18.773438 13.339844 19.808594 11.527344 19.808594 9.472656 C 19.808594 6.148438 17.101562 3.445312 13.78125 3.445312 C 10.457031 3.445312 7.75 6.148438 7.75 9.472656 C 7.75 11.527344 8.785156 13.339844 10.355469 14.429688 C 7.367188 15.59375 5.105469 18.230469 4.484375 21.449219 C 2.757812 19.363281 1.722656 16.691406 1.722656 13.78125 C 1.722656 7.132812 7.132812 1.722656 13.78125 1.722656 C 20.429688 1.722656 25.835938 7.132812 25.835938 13.78125 C 25.835938 16.691406 24.800781 19.363281 23.074219 21.449219 Z M 23.074219 21.449219 " fill-opacity="1" fill-rule="nonzero"/></g></svg>