<svg xmlns="http://www.w3.org/2000/svg" xmlns:xlink="http://www.w3.org/1999/xlink" width="37" zoomAndPan="magnify" viewBox="0 0 27.75 7.5" height="10" preserveAspectRatio="xMidYMid meet" version="1.0"><defs><clipPath id="d096a7edbd"><path d="M 0.75 0 L 26.0625 0 L 26.0625 6.328125 L 0.75 6.328125 Z M 0.75 0 " clip-rule="nonzero"/></clipPath></defs><g clip-path="url(#d096a7edbd)"><path fill="#000000" d="M 3.914062 0 C 2.164062 0 0.75 1.414062 0.75 3.164062 C 0.75 4.914062 2.164062 6.328125 3.914062 6.328125 C 5.664062 6.328125 7.078125 4.914062 7.078125 3.164062 C 7.078125 1.414062 5.664062 0 3.914062 0 Z M 22.898438 0 C 21.148438 0 19.734375 1.414062 19.734375 3.164062 C 19.734375 4.914062 21.148438 6.328125 22.898438 6.328125 C 24.648438 6.328125 26.0625 4.914062 26.0625 3.164062 C 26.0625 1.414062 24.648438 0 22.898438 0 Z M 13.40625 0 C 11.65625 0 10.242188 1.414062 10.242188 3.164062 C 10.242188 4.914062 11.65625 6.328125 13.40625 6.328125 C 15.15625 6.328125 16.570312 4.914062 16.570312 3.164062 C 16.570312 1.414062 15.15625 0 13.40625 0 Z M 13.40625 0 " fill-opacity="1" fill-rule="nonzero"/></g></svg>