<svg xmlns="http://www.w3.org/2000/svg" xmlns:xlink="http://www.w3.org/1999/xlink" width="37" zoomAndPan="magnify" viewBox="0 0 27.75 7.5" height="10" preserveAspectRatio="xMidYMid meet" version="1.0"><defs><clipPath id="16b10ba0be"><path d="M 0.75 0 L 26.0625 0 L 26.0625 6.328125 L 0.75 6.328125 Z M 0.75 0 " clip-rule="nonzero"/></clipPath></defs><g clip-path="url(#16b10ba0be)"><path fill="#ffffff" d="M 3.953125 0 C 2.183594 0 0.75 1.433594 0.75 3.203125 C 0.75 4.972656 2.183594 6.40625 3.953125 6.40625 C 5.722656 6.40625 7.15625 4.972656 7.15625 3.203125 C 7.15625 1.433594 5.722656 0 3.953125 0 Z M 23.167969 0 C 21.398438 0 19.964844 1.433594 19.964844 3.203125 C 19.964844 4.972656 21.398438 6.40625 23.167969 6.40625 C 24.9375 6.40625 26.371094 4.972656 26.371094 3.203125 C 26.371094 1.433594 24.9375 0 23.167969 0 Z M 13.558594 0 C 11.789062 0 10.359375 1.433594 10.359375 3.203125 C 10.359375 4.972656 11.789062 6.40625 13.558594 6.40625 C 15.328125 6.40625 16.761719 4.972656 16.761719 3.203125 C 16.761719 1.433594 15.328125 0 13.558594 0 Z M 13.558594 0 " fill-opacity="1" fill-rule="nonzero"/></g></svg>