<svg xmlns="http://www.w3.org/2000/svg" xmlns:xlink="http://www.w3.org/1999/xlink" width="35" zoomAndPan="magnify" viewBox="0 0 26.25 26.249998" height="35" preserveAspectRatio="xMidYMid meet" version="1.0"><defs><clipPath id="badb020ed0"><path d="M 21 0 L 24.792969 0 L 24.792969 24 L 21 24 Z M 21 0 " clip-rule="nonzero"/></clipPath><clipPath id="785914d76e"><path d="M 3 2 L 22 2 L 22 24.792969 L 3 24.792969 Z M 3 2 " clip-rule="nonzero"/></clipPath></defs><g clip-path="url(#badb020ed0)"><path fill="#ffffff" d="M 23.363281 23.058594 C 23.558594 23.058594 23.746094 23.023438 23.925781 22.945312 C 24.109375 22.871094 24.269531 22.765625 24.40625 22.625 C 24.546875 22.488281 24.652344 22.328125 24.726562 22.144531 C 24.800781 21.964844 24.839844 21.777344 24.839844 21.582031 L 24.839844 1.472656 C 24.839844 1.273438 24.800781 1.085938 24.726562 0.90625 C 24.652344 0.722656 24.546875 0.5625 24.40625 0.425781 C 24.269531 0.285156 24.109375 0.179688 23.925781 0.105469 C 23.746094 0.03125 23.558594 -0.0078125 23.363281 -0.0078125 C 23.164062 -0.0078125 22.976562 0.03125 22.796875 0.105469 C 22.613281 0.179688 22.453125 0.285156 22.316406 0.425781 C 22.175781 0.5625 22.070312 0.722656 21.996094 0.90625 C 21.921875 1.085938 21.882812 1.273438 21.882812 1.472656 L 21.882812 21.582031 C 21.882812 21.777344 21.921875 21.964844 21.996094 22.144531 C 22.070312 22.328125 22.179688 22.488281 22.316406 22.625 C 22.453125 22.765625 22.613281 22.871094 22.796875 22.945312 C 22.976562 23.023438 23.164062 23.058594 23.363281 23.058594 Z M 23.363281 23.058594 " fill-opacity="1" fill-rule="nonzero"/></g><path fill="#ffffff" d="M 3.84375 15.371094 L 7.6875 15.371094 L 7.6875 7.679688 L 3.84375 7.679688 C 3.332031 7.679688 2.84375 7.777344 2.371094 7.972656 C 1.902344 8.167969 1.484375 8.445312 1.125 8.808594 C 0.765625 9.167969 0.488281 9.582031 0.292969 10.054688 C 0.0976562 10.527344 0 11.015625 0 11.527344 C 0 12.035156 0.0976562 12.527344 0.292969 12.996094 C 0.488281 13.46875 0.765625 13.882812 1.125 14.246094 C 1.484375 14.605469 1.902344 14.882812 2.371094 15.078125 C 2.84375 15.273438 3.332031 15.371094 3.84375 15.371094 Z M 3.84375 15.371094 " fill-opacity="1" fill-rule="nonzero"/><g clip-path="url(#785914d76e)"><path fill="#ffffff" d="M 11.460938 20.695312 L 8.9375 20.695312 L 7.753906 15.960938 L 3.84375 15.960938 C 3.769531 15.960938 3.699219 15.953125 3.628906 15.949219 L 5.679688 24.160156 C 5.730469 24.359375 5.835938 24.519531 5.996094 24.644531 C 6.15625 24.769531 6.335938 24.835938 6.542969 24.832031 L 8.835938 24.832031 C 9.394531 24.847656 9.84375 24.269531 9.695312 23.730469 L 9.082031 21.285156 L 11.460938 21.285156 C 12.398438 21.308594 13.148438 20.347656 12.890625 19.4375 L 12.214844 17.117188 L 21.292969 20.914062 L 21.292969 2.136719 L 8.277344 7.582031 L 8.277344 15.46875 L 11.511719 16.824219 L 12.320312 19.589844 C 12.472656 20.128906 12.019531 20.707031 11.460938 20.695312 Z M 11.460938 20.695312 " fill-opacity="1" fill-rule="nonzero"/></g></svg>