<svg xmlns="http://www.w3.org/2000/svg" xmlns:xlink="http://www.w3.org/1999/xlink" width="35" zoomAndPan="magnify" viewBox="0 0 26.25 26.249998" height="35" preserveAspectRatio="xMidYMid meet" version="1.0"><defs><clipPath id="36f4ea26a0"><path d="M 21 0 L 24.792969 0 L 24.792969 24 L 21 24 Z M 21 0 " clip-rule="nonzero"/></clipPath><clipPath id="ff1d245d08"><path d="M 3 2 L 22 2 L 22 24.792969 L 3 24.792969 Z M 3 2 " clip-rule="nonzero"/></clipPath></defs><g clip-path="url(#36f4ea26a0)"><path fill="#000000" d="M 23.316406 23.007812 C 23.511719 23.007812 23.699219 22.96875 23.878906 22.894531 C 24.058594 22.820312 24.21875 22.710938 24.359375 22.574219 C 24.496094 22.4375 24.601562 22.277344 24.679688 22.09375 C 24.753906 21.914062 24.789062 21.726562 24.789062 21.53125 L 24.789062 1.46875 C 24.789062 1.273438 24.753906 1.085938 24.679688 0.902344 C 24.601562 0.722656 24.496094 0.5625 24.359375 0.425781 C 24.21875 0.285156 24.058594 0.179688 23.878906 0.105469 C 23.699219 0.03125 23.511719 -0.0078125 23.316406 -0.0078125 C 23.121094 -0.0078125 22.929688 0.03125 22.75 0.105469 C 22.570312 0.179688 22.410156 0.285156 22.269531 0.425781 C 22.132812 0.5625 22.027344 0.722656 21.953125 0.902344 C 21.875 1.085938 21.839844 1.273438 21.839844 1.46875 L 21.839844 21.53125 C 21.839844 21.726562 21.878906 21.914062 21.953125 22.09375 C 22.027344 22.277344 22.132812 22.4375 22.273438 22.574219 C 22.410156 22.710938 22.570312 22.820312 22.75 22.894531 C 22.929688 22.96875 23.121094 23.007812 23.316406 23.007812 Z M 23.316406 23.007812 " fill-opacity="1" fill-rule="nonzero"/></g><path fill="#000000" d="M 3.835938 15.335938 L 7.671875 15.335938 L 7.671875 7.664062 L 3.835938 7.664062 C 3.328125 7.664062 2.835938 7.761719 2.367188 7.957031 C 1.898438 8.152344 1.480469 8.425781 1.121094 8.789062 C 0.761719 9.148438 0.484375 9.5625 0.289062 10.03125 C 0.0976562 10.5 0 10.992188 0 11.5 C 0 12.007812 0.0976562 12.496094 0.289062 12.96875 C 0.484375 13.4375 0.761719 13.851562 1.121094 14.210938 C 1.480469 14.570312 1.898438 14.847656 2.367188 15.042969 C 2.835938 15.238281 3.328125 15.335938 3.835938 15.335938 Z M 3.835938 15.335938 " fill-opacity="1" fill-rule="nonzero"/><g clip-path="url(#ff1d245d08)"><path fill="#000000" d="M 11.4375 20.644531 L 8.917969 20.644531 L 7.738281 15.925781 L 3.835938 15.925781 C 3.761719 15.925781 3.691406 15.917969 3.621094 15.914062 L 5.667969 24.105469 C 5.71875 24.304688 5.824219 24.464844 5.984375 24.589844 C 6.144531 24.714844 6.324219 24.777344 6.527344 24.777344 L 8.816406 24.777344 C 9.375 24.792969 9.824219 24.214844 9.675781 23.675781 L 9.066406 21.234375 L 11.4375 21.234375 C 12.375 21.257812 13.121094 20.300781 12.867188 19.390625 L 12.1875 17.078125 L 21.25 20.867188 L 21.25 2.132812 L 8.261719 7.566406 L 8.261719 15.433594 L 11.488281 16.785156 L 12.296875 19.546875 C 12.445312 20.085938 11.996094 20.660156 11.4375 20.644531 Z M 11.4375 20.644531 " fill-opacity="1" fill-rule="nonzero"/></g></svg>