<svg xmlns="http://www.w3.org/2000/svg" xmlns:xlink="http://www.w3.org/1999/xlink" width="39" zoomAndPan="magnify" viewBox="0 0 29.25 29.250001" height="39" preserveAspectRatio="xMidYMid meet" version="1.0"><defs><clipPath id="3cc88a274e"><path d="M 0 0 L 27.789062 0 L 27.789062 27.789062 L 0 27.789062 Z M 0 0 " clip-rule="nonzero"/></clipPath></defs><g clip-path="url(#3cc88a274e)"><path fill="#000000" d="M 26.777344 16.066406 C 27.320312 16.066406 27.765625 15.621094 27.765625 15.074219 L 27.765625 12.679688 C 27.765625 12.132812 27.320312 11.6875 26.777344 11.6875 L 25.746094 11.6875 C 25.199219 11.6875 24.625 11.261719 24.464844 10.738281 L 23.585938 8.609375 C 23.328125 8.128906 23.433594 7.417969 23.816406 7.035156 L 24.546875 6.304688 C 24.929688 5.917969 24.929688 5.289062 24.546875 4.902344 L 22.851562 3.207031 C 22.464844 2.824219 21.835938 2.824219 21.449219 3.207031 L 20.71875 3.9375 C 20.335938 4.324219 19.625 4.425781 19.144531 4.167969 L 17.015625 3.289062 C 16.492188 3.128906 16.066406 2.554688 16.066406 2.007812 L 16.066406 0.980469 C 16.066406 0.433594 15.621094 -0.0117188 15.074219 -0.0117188 L 12.679688 -0.0117188 C 12.132812 -0.0117188 11.6875 0.433594 11.6875 0.980469 L 11.6875 2.007812 C 11.6875 2.554688 11.261719 3.128906 10.742188 3.289062 L 8.609375 4.167969 C 8.128906 4.425781 7.417969 4.324219 7.035156 3.9375 L 6.304688 3.207031 C 5.921875 2.824219 5.289062 2.824219 4.902344 3.207031 L 3.207031 4.902344 C 2.824219 5.289062 2.824219 5.917969 3.207031 6.304688 L 3.9375 7.035156 C 4.324219 7.417969 4.425781 8.128906 4.167969 8.609375 L 3.292969 10.738281 C 3.132812 11.261719 2.554688 11.6875 2.007812 11.6875 L 0.980469 11.6875 C 0.433594 11.6875 -0.0117188 12.132812 -0.0117188 12.679688 L -0.0117188 15.074219 C -0.0117188 15.621094 0.433594 16.066406 0.980469 16.066406 L 2.007812 16.066406 C 2.554688 16.066406 3.132812 16.492188 3.292969 17.015625 L 4.171875 19.148438 C 4.429688 19.625 4.324219 20.335938 3.9375 20.71875 L 3.210938 21.449219 C 2.824219 21.835938 2.824219 22.464844 3.210938 22.851562 L 4.902344 24.546875 C 5.289062 24.929688 5.921875 24.929688 6.304688 24.546875 L 7.035156 23.816406 C 7.421875 23.433594 8.128906 23.328125 8.609375 23.585938 L 10.742188 24.464844 C 11.261719 24.625 11.6875 25.199219 11.6875 25.746094 L 11.6875 26.777344 C 11.6875 27.320312 12.132812 27.765625 12.679688 27.765625 L 15.074219 27.765625 C 15.621094 27.765625 16.066406 27.320312 16.066406 26.777344 L 16.066406 25.746094 C 16.066406 25.199219 16.492188 24.625 17.015625 24.464844 L 19.148438 23.585938 C 19.625 23.328125 20.335938 23.429688 20.71875 23.816406 L 21.449219 24.546875 C 21.835938 24.929688 22.464844 24.929688 22.851562 24.546875 L 24.546875 22.851562 C 24.929688 22.464844 24.933594 21.835938 24.546875 21.449219 L 23.816406 20.71875 C 23.433594 20.335938 23.328125 19.625 23.585938 19.144531 L 24.464844 17.015625 C 24.625 16.492188 25.199219 16.066406 25.746094 16.066406 Z M 13.878906 19.589844 C 10.722656 19.589844 8.164062 17.03125 8.164062 13.878906 C 8.164062 10.722656 10.722656 8.164062 13.878906 8.164062 C 17.03125 8.164062 19.589844 10.722656 19.589844 13.878906 C 19.589844 17.03125 17.03125 19.589844 13.878906 19.589844 Z M 13.878906 19.589844 " fill-opacity="1" fill-rule="nonzero"/></g></svg>