<svg xmlns="http://www.w3.org/2000/svg" xmlns:xlink="http://www.w3.org/1999/xlink" width="39" zoomAndPan="magnify" viewBox="0 0 29.25 29.250001" height="39" preserveAspectRatio="xMidYMid meet" version="1.0"><defs><clipPath id="a0a790cee1"><path d="M 0 0 L 27.789062 0 L 27.789062 27.789062 L 0 27.789062 Z M 0 0 " clip-rule="nonzero"/></clipPath></defs><g clip-path="url(#a0a790cee1)"><path fill="#ffffff" d="M 26.875 16.125 C 27.421875 16.125 27.871094 15.679688 27.871094 15.132812 L 27.871094 12.726562 C 27.871094 12.179688 27.421875 11.730469 26.875 11.730469 L 25.839844 11.730469 C 25.292969 11.730469 24.714844 11.300781 24.554688 10.78125 L 23.671875 8.640625 C 23.414062 8.15625 23.519531 7.445312 23.90625 7.058594 L 24.636719 6.328125 C 25.023438 5.941406 25.023438 5.308594 24.636719 4.921875 L 22.9375 3.21875 C 22.546875 2.832031 21.914062 2.832031 21.527344 3.21875 L 20.796875 3.953125 C 20.410156 4.339844 19.699219 4.441406 19.21875 4.183594 L 17.078125 3.304688 C 16.554688 3.140625 16.125 2.5625 16.125 2.015625 L 16.125 0.984375 C 16.125 0.433594 15.679688 -0.0117188 15.132812 -0.0117188 L 12.726562 -0.0117188 C 12.179688 -0.0117188 11.730469 0.433594 11.730469 0.984375 L 11.730469 2.015625 C 11.730469 2.5625 11.300781 3.140625 10.78125 3.304688 L 8.640625 4.183594 C 8.15625 4.441406 7.445312 4.339844 7.058594 3.953125 L 6.328125 3.21875 C 5.941406 2.832031 5.308594 2.832031 4.921875 3.21875 L 3.222656 4.921875 C 2.832031 5.308594 2.832031 5.941406 3.222656 6.328125 L 3.953125 7.058594 C 4.339844 7.445312 4.445312 8.15625 4.183594 8.640625 L 3.304688 10.78125 C 3.144531 11.300781 2.5625 11.730469 2.015625 11.730469 L 0.984375 11.730469 C 0.4375 11.730469 -0.0117188 12.179688 -0.0117188 12.726562 L -0.0117188 15.132812 C -0.0117188 15.679688 0.4375 16.125 0.984375 16.125 L 2.015625 16.125 C 2.5625 16.125 3.144531 16.554688 3.304688 17.078125 L 4.183594 19.21875 C 4.445312 19.699219 4.339844 20.410156 3.953125 20.796875 L 3.222656 21.527344 C 2.835938 21.914062 2.835938 22.546875 3.222656 22.9375 L 4.921875 24.636719 C 5.308594 25.023438 5.941406 25.023438 6.328125 24.636719 L 7.058594 23.90625 C 7.449219 23.519531 8.160156 23.414062 8.640625 23.671875 L 10.78125 24.554688 C 11.304688 24.714844 11.730469 25.292969 11.730469 25.839844 L 11.730469 26.875 C 11.730469 27.421875 12.179688 27.871094 12.726562 27.871094 L 15.132812 27.871094 C 15.679688 27.871094 16.125 27.421875 16.125 26.875 L 16.125 25.839844 C 16.125 25.292969 16.554688 24.714844 17.078125 24.554688 L 19.21875 23.671875 C 19.699219 23.414062 20.410156 23.519531 20.796875 23.90625 L 21.527344 24.636719 C 21.914062 25.023438 22.550781 25.023438 22.9375 24.636719 L 24.636719 22.9375 C 25.023438 22.550781 25.023438 21.914062 24.636719 21.527344 L 23.90625 20.796875 C 23.519531 20.410156 23.414062 19.699219 23.671875 19.21875 L 24.554688 17.078125 C 24.714844 16.554688 25.292969 16.125 25.84375 16.125 Z M 13.929688 19.664062 C 10.761719 19.664062 8.191406 17.097656 8.191406 13.929688 C 8.191406 10.761719 10.761719 8.191406 13.929688 8.191406 C 17.097656 8.191406 19.664062 10.761719 19.664062 13.929688 C 19.664062 17.097656 17.097656 19.664062 13.929688 19.664062 Z M 13.929688 19.664062 " fill-opacity="1" fill-rule="nonzero"/></g></svg>