<svg xmlns="http://www.w3.org/2000/svg" xmlns:xlink="http://www.w3.org/1999/xlink" width="24" zoomAndPan="magnify" viewBox="0 0 18 17.999999" height="24" preserveAspectRatio="xMidYMid meet" version="1.0"><path fill="#000000" d="M 7.433594 14.375 C 7.152344 14.375 6.871094 14.355469 6.59375 14.324219 C 6.3125 14.289062 6.039062 14.238281 5.765625 14.167969 C 5.492188 14.101562 5.222656 14.015625 4.960938 13.914062 C 4.699219 13.8125 4.441406 13.695312 4.195312 13.5625 C 3.945312 13.429688 3.707031 13.285156 3.476562 13.121094 C 3.246094 12.960938 3.027344 12.785156 2.820312 12.59375 C 2.609375 12.40625 2.414062 12.207031 2.230469 11.992188 C 2.046875 11.78125 1.878906 11.554688 1.722656 11.324219 C 1.566406 11.089844 1.421875 10.847656 1.296875 10.59375 C 1.171875 10.34375 1.058594 10.085938 0.964844 9.820312 C 0.871094 9.554688 0.792969 9.285156 0.730469 9.011719 C 0.667969 8.734375 0.625 8.460938 0.597656 8.179688 C 0.566406 7.898438 0.558594 7.617188 0.566406 7.335938 C 0.570312 7.054688 0.597656 6.777344 0.636719 6.496094 C 0.679688 6.21875 0.738281 5.945312 0.8125 5.671875 C 0.886719 5.402344 0.976562 5.136719 1.085938 4.875 C 1.195312 4.617188 1.316406 4.363281 1.457031 4.121094 C 1.59375 3.875 1.746094 3.640625 1.914062 3.414062 C 2.082031 3.1875 2.261719 2.972656 2.457031 2.769531 C 2.652344 2.566406 2.859375 2.375 3.074219 2.195312 C 3.292969 2.015625 3.519531 1.851562 3.757812 1.703125 C 3.996094 1.550781 4.242188 1.417969 4.496094 1.296875 C 4.75 1.175781 5.011719 1.070312 5.277344 0.984375 C 5.546875 0.894531 5.816406 0.824219 6.09375 0.769531 C 6.371094 0.714844 6.648438 0.675781 6.929688 0.65625 C 7.210938 0.636719 7.488281 0.632812 7.769531 0.644531 C 8.050781 0.660156 8.332031 0.691406 8.609375 0.738281 C 8.886719 0.789062 9.160156 0.851562 9.429688 0.933594 C 9.699219 1.015625 9.960938 1.113281 10.21875 1.230469 C 10.476562 1.34375 10.722656 1.472656 10.964844 1.617188 C 11.207031 1.761719 11.4375 1.921875 11.660156 2.09375 C 11.882812 2.265625 12.089844 2.453125 12.289062 2.652344 C 12.769531 3.132812 13.171875 3.671875 13.492188 4.269531 C 13.8125 4.871094 14.039062 5.503906 14.171875 6.167969 C 14.304688 6.835938 14.335938 7.507812 14.269531 8.183594 C 14.203125 8.859375 14.042969 9.507812 13.78125 10.136719 C 13.519531 10.765625 13.175781 11.339844 12.746094 11.867188 C 12.3125 12.390625 11.816406 12.839844 11.25 13.21875 C 10.6875 13.597656 10.078125 13.882812 9.429688 14.078125 C 8.777344 14.277344 8.113281 14.375 7.433594 14.375 Z M 7.433594 2.152344 C 7.023438 2.148438 6.617188 2.195312 6.214844 2.289062 C 5.816406 2.382812 5.429688 2.519531 5.0625 2.699219 C 4.691406 2.878906 4.347656 3.101562 4.03125 3.359375 C 3.710938 3.621094 3.425781 3.914062 3.175781 4.238281 C 2.925781 4.566406 2.714844 4.914062 2.542969 5.289062 C 2.375 5.664062 2.25 6.054688 2.167969 6.457031 C 2.085938 6.859375 2.054688 7.265625 2.066406 7.675781 C 2.078125 8.089844 2.136719 8.492188 2.246094 8.890625 C 2.351562 9.289062 2.5 9.667969 2.695312 10.03125 C 2.886719 10.394531 3.117188 10.730469 3.390625 11.039062 C 3.660156 11.347656 3.964844 11.621094 4.296875 11.863281 C 4.632812 12.101562 4.988281 12.300781 5.367188 12.457031 C 5.746094 12.617188 6.140625 12.730469 6.546875 12.796875 C 6.953125 12.863281 7.359375 12.882812 7.769531 12.855469 C 8.179688 12.828125 8.582031 12.757812 8.976562 12.636719 C 9.371094 12.519531 9.746094 12.355469 10.101562 12.152344 C 10.457031 11.945312 10.785156 11.703125 11.085938 11.421875 C 11.386719 11.140625 11.648438 10.828125 11.878906 10.484375 C 12.105469 10.144531 12.292969 9.78125 12.4375 9.394531 C 12.582031 9.011719 12.679688 8.613281 12.734375 8.207031 C 12.789062 7.800781 12.792969 7.390625 12.753906 6.980469 C 12.714844 6.574219 12.628906 6.171875 12.496094 5.785156 C 12.363281 5.394531 12.1875 5.023438 11.96875 4.675781 C 11.753906 4.328125 11.5 4.007812 11.207031 3.71875 C 10.707031 3.214844 10.128906 2.832031 9.476562 2.558594 C 8.824219 2.289062 8.140625 2.152344 7.433594 2.152344 Z M 7.433594 2.152344 " fill-opacity="1" fill-rule="nonzero"/><path fill="#000000" d="M 17.167969 18 C 16.960938 18 16.785156 17.925781 16.636719 17.777344 L 11.222656 12.367188 C 11.074219 12.21875 11 12.039062 11 11.832031 C 11 11.625 11.074219 11.445312 11.222656 11.296875 C 11.371094 11.152344 11.546875 11.078125 11.757812 11.078125 C 11.964844 11.078125 12.144531 11.152344 12.289062 11.296875 L 17.703125 16.714844 C 17.9375 16.949219 17.992188 17.222656 17.863281 17.535156 C 17.734375 17.84375 17.503906 18 17.167969 18 Z M 17.167969 18 " fill-opacity="1" fill-rule="nonzero"/></svg>