<svg xmlns="http://www.w3.org/2000/svg" xmlns:xlink="http://www.w3.org/1999/xlink" width="24" zoomAndPan="magnify" viewBox="0 0 18 17.999999" height="24" preserveAspectRatio="xMidYMid meet" version="1.0"><path fill="#ffffff" d="M 7.371094 14.25 C 7.09375 14.253906 6.8125 14.234375 6.539062 14.199219 C 6.261719 14.167969 5.988281 14.117188 5.714844 14.046875 C 5.445312 13.980469 5.179688 13.898438 4.917969 13.796875 C 4.660156 13.695312 4.40625 13.582031 4.160156 13.449219 C 3.914062 13.316406 3.675781 13.171875 3.449219 13.011719 C 3.21875 12.851562 3.003906 12.675781 2.796875 12.488281 C 2.589844 12.300781 2.394531 12.101562 2.210938 11.890625 C 2.03125 11.679688 1.863281 11.457031 1.707031 11.226562 C 1.550781 10.996094 1.410156 10.753906 1.285156 10.503906 C 1.160156 10.253906 1.050781 10 0.957031 9.738281 C 0.863281 9.472656 0.785156 9.207031 0.722656 8.933594 C 0.664062 8.664062 0.617188 8.386719 0.589844 8.109375 C 0.5625 7.832031 0.554688 7.554688 0.558594 7.273438 C 0.566406 6.996094 0.589844 6.71875 0.632812 6.441406 C 0.671875 6.167969 0.730469 5.894531 0.804688 5.625 C 0.878906 5.355469 0.96875 5.09375 1.078125 4.835938 C 1.183594 4.578125 1.304688 4.328125 1.441406 4.085938 C 1.582031 3.84375 1.734375 3.609375 1.898438 3.382812 C 2.066406 3.160156 2.246094 2.949219 2.4375 2.746094 C 2.628906 2.542969 2.832031 2.355469 3.050781 2.175781 C 3.265625 2 3.492188 1.835938 3.726562 1.6875 C 3.960938 1.539062 4.207031 1.40625 4.457031 1.285156 C 4.710938 1.164062 4.96875 1.0625 5.234375 0.976562 C 5.5 0.886719 5.769531 0.816406 6.042969 0.761719 C 6.316406 0.707031 6.589844 0.671875 6.871094 0.652344 C 7.148438 0.628906 7.425781 0.625 7.707031 0.640625 C 7.984375 0.65625 8.261719 0.683594 8.535156 0.734375 C 8.808594 0.78125 9.082031 0.84375 9.347656 0.925781 C 9.617188 1.007812 9.875 1.105469 10.132812 1.21875 C 10.386719 1.332031 10.632812 1.460938 10.871094 1.601562 C 11.113281 1.746094 11.339844 1.90625 11.5625 2.078125 C 11.78125 2.25 11.988281 2.433594 12.1875 2.628906 C 12.664062 3.105469 13.058594 3.640625 13.378906 4.234375 C 13.695312 4.828125 13.921875 5.457031 14.050781 6.117188 C 14.183594 6.777344 14.214844 7.441406 14.148438 8.113281 C 14.085938 8.78125 13.921875 9.429688 13.664062 10.050781 C 13.40625 10.671875 13.0625 11.246094 12.636719 11.765625 C 12.210938 12.285156 11.714844 12.734375 11.15625 13.105469 C 10.59375 13.480469 9.992188 13.765625 9.347656 13.960938 C 8.703125 14.15625 8.042969 14.253906 7.371094 14.25 Z M 7.371094 2.132812 C 6.964844 2.132812 6.5625 2.175781 6.164062 2.269531 C 5.765625 2.359375 5.382812 2.496094 5.019531 2.675781 C 4.652344 2.855469 4.3125 3.074219 3.996094 3.332031 C 3.679688 3.589844 3.398438 3.882812 3.148438 4.203125 C 2.902344 4.527344 2.691406 4.875 2.523438 5.246094 C 2.355469 5.617188 2.230469 6.003906 2.148438 6.402344 C 2.070312 6.800781 2.035156 7.207031 2.046875 7.613281 C 2.0625 8.019531 2.121094 8.421875 2.226562 8.816406 C 2.332031 9.207031 2.480469 9.585938 2.671875 9.945312 C 2.863281 10.304688 3.09375 10.636719 3.359375 10.945312 C 3.628906 11.253906 3.929688 11.523438 4.261719 11.761719 C 4.59375 12 4.945312 12.195312 5.324219 12.351562 C 5.699219 12.507812 6.089844 12.621094 6.492188 12.6875 C 6.894531 12.753906 7.296875 12.773438 7.703125 12.746094 C 8.109375 12.722656 8.511719 12.648438 8.898438 12.53125 C 9.289062 12.414062 9.660156 12.25 10.015625 12.046875 C 10.367188 11.84375 10.695312 11.601562 10.992188 11.324219 C 11.289062 11.046875 11.550781 10.734375 11.777344 10.398438 C 12.003906 10.058594 12.1875 9.699219 12.332031 9.316406 C 12.476562 8.933594 12.574219 8.542969 12.628906 8.136719 C 12.679688 7.734375 12.6875 7.328125 12.644531 6.921875 C 12.605469 6.515625 12.519531 6.121094 12.390625 5.734375 C 12.257812 5.347656 12.085938 4.984375 11.867188 4.636719 C 11.652344 4.289062 11.402344 3.972656 11.113281 3.683594 C 10.617188 3.1875 10.042969 2.804688 9.394531 2.539062 C 8.746094 2.269531 8.074219 2.132812 7.371094 2.132812 Z M 7.371094 2.132812 " fill-opacity="1" fill-rule="nonzero"/><path fill="#ffffff" d="M 17.023438 17.847656 C 16.816406 17.847656 16.640625 17.773438 16.496094 17.625 L 11.128906 12.261719 C 10.980469 12.113281 10.910156 11.9375 10.910156 11.730469 C 10.910156 11.523438 10.980469 11.347656 11.128906 11.203125 C 11.273438 11.054688 11.449219 10.984375 11.65625 10.984375 C 11.863281 10.984375 12.039062 11.054688 12.1875 11.203125 L 17.550781 16.570312 C 17.785156 16.808594 17.839844 17.078125 17.714844 17.386719 C 17.585938 17.691406 17.355469 17.847656 17.023438 17.847656 Z M 17.023438 17.847656 " fill-opacity="1" fill-rule="nonzero"/></svg>