<svg xmlns="http://www.w3.org/2000/svg" xmlns:xlink="http://www.w3.org/1999/xlink" width="127" zoomAndPan="magnify" viewBox="0 0 95.25 41.25" height="55" preserveAspectRatio="xMidYMid meet" version="1.0"><defs><g/><clipPath id="44d136ef50"><path d="M 0.480469 4.40625 L 27 4.40625 L 27 30.921875 L 0.480469 30.921875 Z M 0.480469 4.40625 " clip-rule="nonzero"/></clipPath></defs><g clip-path="url(#44d136ef50)"><path fill="#ffffff" d="M 13.902344 6.84375 C 7.839844 6.84375 2.921875 11.761719 2.921875 17.824219 C 2.921875 23.890625 7.839844 28.804688 13.902344 28.804688 C 19.964844 28.804688 24.882812 23.890625 24.882812 17.824219 C 24.882812 11.761719 19.964844 6.84375 13.902344 6.84375 Z M 0.480469 17.824219 C 0.480469 10.414062 6.492188 4.40625 13.902344 4.40625 C 21.3125 4.40625 27.320312 10.414062 27.320312 17.824219 C 27.320312 25.238281 21.3125 31.246094 13.902344 31.246094 C 6.492188 31.246094 0.480469 25.238281 0.480469 17.824219 Z M 0.480469 17.824219 " fill-opacity="1" fill-rule="evenodd"/></g><path fill="#ffffff" d="M 12.683594 13.757812 L 15.121094 13.757812 L 15.121094 25.957031 L 12.683594 25.957031 Z M 12.683594 13.757812 " fill-opacity="1" fill-rule="evenodd"/><path fill="#ffffff" d="M 12.683594 9.691406 L 15.121094 9.691406 L 15.121094 12.402344 L 12.683594 12.402344 Z M 12.683594 9.691406 " fill-opacity="1" fill-rule="evenodd"/><g fill="#ffffff" fill-opacity="1"><g transform="translate(37.520748, 17.187512)"><g><path d="M 0.6875 0 L 0.6875 -8.25 L 2.0625 -8.25 L 2.0625 -4.125 L 6.1875 -4.125 L 6.1875 -8.25 L 7.5625 -8.25 L 7.5625 0 L 6.1875 0 L 6.1875 -2.75 L 2.0625 -2.75 L 2.0625 0 Z M 2.0625 -8.25 L 2.0625 -9.625 L 6.1875 -9.625 L 6.1875 -8.25 Z M 2.0625 -8.25 "/></g></g></g><g fill="#ffffff" fill-opacity="1"><g transform="translate(45.766149, 17.187512)"><g><path d="M 0.6875 0 L 0.6875 -9.625 L 2.0625 -9.625 L 2.0625 -6.875 L 6.1875 -6.875 L 6.1875 -5.5 L 2.0625 -5.5 L 2.0625 -1.375 L 6.1875 -1.375 L 6.1875 0 Z M 6.1875 -1.375 L 6.1875 -5.5 L 7.5625 -5.5 L 7.5625 -1.375 Z M 6.1875 -1.375 "/></g></g></g><g fill="#ffffff" fill-opacity="1"><g transform="translate(54.011549, 17.187512)"><g><path d="M 6.1875 -1.375 L 6.1875 0 L 2.0625 0 L 2.0625 -1.375 Z M 0.6875 -1.375 L 0.6875 -5.5 L 2.0625 -5.5 L 2.0625 -1.375 Z M 2.0625 -5.5 L 2.0625 -6.875 L 6.1875 -6.875 L 6.1875 -5.5 Z M 6.1875 -1.375 L 6.1875 -5.5 L 7.5625 -5.5 L 7.5625 -1.375 Z M 6.1875 -1.375 "/></g></g></g><g fill="#ffffff" fill-opacity="1"><g transform="translate(62.256949, 17.187512)"><g><path d="M 6.1875 -1.375 L 6.1875 0 L 2.0625 0 L 2.0625 -1.375 Z M 0.6875 -1.375 L 0.6875 -6.875 L 2.0625 -6.875 L 2.0625 -1.375 Z M 6.1875 -1.375 L 6.1875 -6.875 L 7.5625 -6.875 L 7.5625 -1.375 Z M 6.1875 -1.375 "/></g></g></g><g fill="#ffffff" fill-opacity="1"><g transform="translate(70.502349, 17.187512)"><g><path d="M 0.6875 -1.375 L 0.6875 -9.625 L 2.0625 -9.625 L 2.0625 -6.875 L 4.8125 -6.875 L 4.8125 -5.5 L 2.0625 -5.5 L 2.0625 -1.375 Z M 2.0625 0 L 2.0625 -1.375 L 4.8125 -1.375 L 4.8125 0 Z M 2.0625 0 "/></g></g></g><g fill="#ffffff" fill-opacity="1"><g transform="translate(37.520748, 30.44644)"><g><path d="M 6.1875 -1.375 L 6.1875 0 L 2.0625 0 L 2.0625 -1.375 Z M 0.6875 -1.375 L 0.6875 -9.625 L 2.0625 -9.625 L 2.0625 -1.375 Z M 6.1875 -1.375 L 6.1875 -9.625 L 7.5625 -9.625 L 7.5625 -1.375 Z M 6.1875 -1.375 "/></g></g></g><g fill="#ffffff" fill-opacity="1"><g transform="translate(45.766149, 30.44644)"><g><path d="M 2.0625 -5.5 L 2.0625 -4.125 L 0.6875 -4.125 L 0.6875 -5.5 Z M 0.6875 0 L 0.6875 -1.375 L 4.8125 -1.375 L 4.8125 0 Z M 2.0625 -2.75 L 2.0625 -4.125 L 4.8125 -4.125 L 4.8125 -2.75 Z M 2.0625 -5.5 L 2.0625 -6.875 L 6.1875 -6.875 L 6.1875 -5.5 Z M 4.8125 -1.375 L 4.8125 -2.75 L 6.1875 -2.75 L 6.1875 -1.375 Z M 4.8125 -1.375 "/></g></g></g></svg>