<svg xmlns="http://www.w3.org/2000/svg" xmlns:xlink="http://www.w3.org/1999/xlink" width="127" zoomAndPan="magnify" viewBox="0 0 95.25 41.25" height="55" preserveAspectRatio="xMidYMid meet" version="1.0"><defs><g/><clipPath id="414f2ccf0b"><path d="M 0.480469 4.40625 L 27 4.40625 L 27 30.921875 L 0.480469 30.921875 Z M 0.480469 4.40625 " clip-rule="nonzero"/></clipPath></defs><g clip-path="url(#414f2ccf0b)"><path fill="#000000" d="M 13.742188 6.816406 C 7.75 6.816406 2.894531 11.671875 2.894531 17.664062 C 2.894531 23.65625 7.75 28.511719 13.742188 28.511719 C 19.730469 28.511719 24.589844 23.65625 24.589844 17.664062 C 24.589844 11.671875 19.730469 6.816406 13.742188 6.816406 Z M 0.480469 17.664062 C 0.480469 10.339844 6.417969 4.40625 13.742188 4.40625 C 21.0625 4.40625 27 10.339844 27 17.664062 C 27 24.988281 21.0625 30.921875 13.742188 30.921875 C 6.417969 30.921875 0.480469 24.988281 0.480469 17.664062 Z M 0.480469 17.664062 " fill-opacity="1" fill-rule="evenodd"/></g><path fill="#000000" d="M 12.535156 13.644531 L 14.945312 13.644531 L 14.945312 25.699219 L 12.535156 25.699219 Z M 12.535156 13.644531 " fill-opacity="1" fill-rule="evenodd"/><path fill="#000000" d="M 12.535156 9.628906 L 14.945312 9.628906 L 14.945312 12.308594 L 12.535156 12.308594 Z M 12.535156 9.628906 " fill-opacity="1" fill-rule="evenodd"/><g fill="#000000" fill-opacity="1"><g transform="translate(37.520748, 17.187512)"><g><path d="M 0.6875 0 L 0.6875 -8.25 L 2.0625 -8.25 L 2.0625 -4.125 L 6.1875 -4.125 L 6.1875 -8.25 L 7.5625 -8.25 L 7.5625 0 L 6.1875 0 L 6.1875 -2.75 L 2.0625 -2.75 L 2.0625 0 Z M 2.0625 -8.25 L 2.0625 -9.625 L 6.1875 -9.625 L 6.1875 -8.25 Z M 2.0625 -8.25 "/></g></g></g><g fill="#000000" fill-opacity="1"><g transform="translate(45.766149, 17.187512)"><g><path d="M 0.6875 0 L 0.6875 -9.625 L 2.0625 -9.625 L 2.0625 -6.875 L 6.1875 -6.875 L 6.1875 -5.5 L 2.0625 -5.5 L 2.0625 -1.375 L 6.1875 -1.375 L 6.1875 0 Z M 6.1875 -1.375 L 6.1875 -5.5 L 7.5625 -5.5 L 7.5625 -1.375 Z M 6.1875 -1.375 "/></g></g></g><g fill="#000000" fill-opacity="1"><g transform="translate(54.011549, 17.187512)"><g><path d="M 6.1875 -1.375 L 6.1875 0 L 2.0625 0 L 2.0625 -1.375 Z M 0.6875 -1.375 L 0.6875 -5.5 L 2.0625 -5.5 L 2.0625 -1.375 Z M 2.0625 -5.5 L 2.0625 -6.875 L 6.1875 -6.875 L 6.1875 -5.5 Z M 6.1875 -1.375 L 6.1875 -5.5 L 7.5625 -5.5 L 7.5625 -1.375 Z M 6.1875 -1.375 "/></g></g></g><g fill="#000000" fill-opacity="1"><g transform="translate(62.256949, 17.187512)"><g><path d="M 6.1875 -1.375 L 6.1875 0 L 2.0625 0 L 2.0625 -1.375 Z M 0.6875 -1.375 L 0.6875 -6.875 L 2.0625 -6.875 L 2.0625 -1.375 Z M 6.1875 -1.375 L 6.1875 -6.875 L 7.5625 -6.875 L 7.5625 -1.375 Z M 6.1875 -1.375 "/></g></g></g><g fill="#000000" fill-opacity="1"><g transform="translate(70.502349, 17.187512)"><g><path d="M 0.6875 -1.375 L 0.6875 -9.625 L 2.0625 -9.625 L 2.0625 -6.875 L 4.8125 -6.875 L 4.8125 -5.5 L 2.0625 -5.5 L 2.0625 -1.375 Z M 2.0625 0 L 2.0625 -1.375 L 4.8125 -1.375 L 4.8125 0 Z M 2.0625 0 "/></g></g></g><g fill="#000000" fill-opacity="1"><g transform="translate(37.520748, 30.44644)"><g><path d="M 6.1875 -1.375 L 6.1875 0 L 2.0625 0 L 2.0625 -1.375 Z M 0.6875 -1.375 L 0.6875 -9.625 L 2.0625 -9.625 L 2.0625 -1.375 Z M 6.1875 -1.375 L 6.1875 -9.625 L 7.5625 -9.625 L 7.5625 -1.375 Z M 6.1875 -1.375 "/></g></g></g><g fill="#000000" fill-opacity="1"><g transform="translate(45.766149, 30.44644)"><g><path d="M 2.0625 -5.5 L 2.0625 -4.125 L 0.6875 -4.125 L 0.6875 -5.5 Z M 0.6875 0 L 0.6875 -1.375 L 4.8125 -1.375 L 4.8125 0 Z M 2.0625 -2.75 L 2.0625 -4.125 L 4.8125 -4.125 L 4.8125 -2.75 Z M 2.0625 -5.5 L 2.0625 -6.875 L 6.1875 -6.875 L 6.1875 -5.5 Z M 4.8125 -1.375 L 4.8125 -2.75 L 6.1875 -2.75 L 6.1875 -1.375 Z M 4.8125 -1.375 "/></g></g></g></svg>