<svg xmlns="http://www.w3.org/2000/svg" xmlns:xlink="http://www.w3.org/1999/xlink" width="32" zoomAndPan="magnify" viewBox="0 0 24 23.999999" height="32" preserveAspectRatio="xMidYMid meet" version="1.0"><defs><clipPath id="11cf4838e5"><path d="M 0 0 L 23.929688 0 L 23.929688 23.929688 L 0 23.929688 Z M 0 0 " clip-rule="nonzero"/></clipPath><clipPath id="b5f2cd39d2"><path d="M 11.964844 23.929688 C 18.570312 23.929688 23.929688 18.570312 23.929688 11.964844 C 23.929688 5.355469 18.570312 -0.00390625 11.964844 -0.00390625 C 5.355469 -0.00390625 -0.00390625 5.355469 -0.00390625 11.964844 C -0.00390625 18.570312 5.355469 23.929688 11.964844 23.929688 Z M 11.964844 23.929688 " clip-rule="nonzero"/></clipPath><clipPath id="553437c859"><path d="M 6.820312 5 L 17 5 L 17 19 L 6.820312 19 Z M 6.820312 5 " clip-rule="nonzero"/></clipPath></defs><g clip-path="url(#11cf4838e5)"><g clip-path="url(#b5f2cd39d2)"><path fill="#ffffff" d="M 23.929688 23.929688 L -0.00390625 23.929688 L -0.00390625 -0.00390625 L 23.929688 -0.00390625 Z M 23.929688 23.929688 " fill-opacity="1" fill-rule="nonzero"/></g></g><g clip-path="url(#553437c859)"><path fill="#000000" d="M 6.820312 11.851562 L 13.289062 18.386719 C 14.539062 19.648438 17.105469 17.3125 15.597656 15.84375 L 11.507812 11.851562 L 15.730469 7.925781 C 17.015625 6.730469 14.632812 4.273438 13.355469 5.515625 Z M 6.820312 11.851562 " fill-opacity="1" fill-rule="nonzero"/></g></svg>