<svg xmlns="http://www.w3.org/2000/svg" xmlns:xlink="http://www.w3.org/1999/xlink" width="127" zoomAndPan="magnify" viewBox="0 0 95.25 41.25" height="55" preserveAspectRatio="xMidYMid meet" version="1.0"><defs><g/><clipPath id="930023f8f6"><path d="M 0.480469 4.40625 L 27.738281 4.40625 L 27.738281 31.660156 L 0.480469 31.660156 Z M 0.480469 4.40625 " clip-rule="nonzero"/></clipPath><clipPath id="99c713e252"><path d="M 0.480469 10.296875 L 0.480469 25.640625 C 0.480469 28.898438 3.121094 31.535156 6.375 31.535156 L 21.71875 31.535156 C 24.972656 31.535156 27.613281 28.898438 27.613281 25.640625 L 27.613281 10.296875 C 27.613281 7.042969 24.972656 4.40625 21.71875 4.40625 L 6.375 4.40625 C 3.121094 4.40625 0.480469 7.042969 0.480469 10.296875 Z M 0.480469 10.296875 " clip-rule="nonzero"/></clipPath></defs><g clip-path="url(#930023f8f6)"><g clip-path="url(#99c713e252)"><path fill="#000000" d="M -7.058594 6.867188 L -7.058594 30.128906 C -7.058594 30.964844 -6.386719 31.644531 -5.558594 31.644531 L 33.429688 31.644531 C 34.257812 31.644531 34.929688 30.964844 34.929688 30.128906 L 34.929688 6.867188 L 14.71875 19.324219 C 14.238281 19.617188 13.636719 19.617188 13.15625 19.324219 Z M 13.9375 16.261719 L -5.273438 4.421875 L 33.144531 4.421875 Z M 13.9375 16.261719 " fill-opacity="1" fill-rule="evenodd"/></g></g><g fill="#000000" fill-opacity="1"><g transform="translate(37.520748, 17.187512)"><g><path d="M 0.6875 -1.375 L 0.6875 -8.25 L 2.0625 -8.25 L 2.0625 -1.375 Z M 2.0625 0 L 2.0625 -1.375 L 6.1875 -1.375 L 6.1875 0 Z M 2.0625 -8.25 L 2.0625 -9.625 L 6.1875 -9.625 L 6.1875 -8.25 Z M 6.1875 -1.375 L 6.1875 -2.75 L 7.5625 -2.75 L 7.5625 -1.375 Z M 6.1875 -6.875 L 6.1875 -8.25 L 7.5625 -8.25 L 7.5625 -6.875 Z M 6.1875 -6.875 "/></g></g></g><g fill="#000000" fill-opacity="1"><g transform="translate(45.766149, 17.187512)"><g><path d="M 6.1875 -1.375 L 6.1875 0 L 2.0625 0 L 2.0625 -1.375 Z M 0.6875 -1.375 L 0.6875 -5.5 L 2.0625 -5.5 L 2.0625 -1.375 Z M 2.0625 -5.5 L 2.0625 -6.875 L 6.1875 -6.875 L 6.1875 -5.5 Z M 6.1875 -1.375 L 6.1875 -5.5 L 7.5625 -5.5 L 7.5625 -1.375 Z M 6.1875 -1.375 "/></g></g></g><g fill="#000000" fill-opacity="1"><g transform="translate(54.011549, 17.187512)"><g><path d="M 6.1875 0 L 6.1875 -5.5 L 7.5625 -5.5 L 7.5625 0 Z M 0.6875 0 L 0.6875 -5.5 L 2.0625 -5.5 L 2.0625 0 Z M 2.0625 -5.5 L 2.0625 -6.875 L 6.1875 -6.875 L 6.1875 -5.5 Z M 2.0625 -5.5 "/></g></g></g><g fill="#000000" fill-opacity="1"><g transform="translate(62.256949, 17.187512)"><g><path d="M 0.6875 -1.375 L 0.6875 -9.625 L 2.0625 -9.625 L 2.0625 -6.875 L 4.8125 -6.875 L 4.8125 -5.5 L 2.0625 -5.5 L 2.0625 -1.375 Z M 2.0625 0 L 2.0625 -1.375 L 4.8125 -1.375 L 4.8125 0 Z M 2.0625 0 "/></g></g></g><g fill="#000000" fill-opacity="1"><g transform="translate(67.753886, 17.187512)"><g><path d="M 2.0625 0 L 2.0625 -1.375 L 6.1875 -1.375 L 6.1875 -2.75 L 2.0625 -2.75 L 2.0625 -4.125 L 6.1875 -4.125 L 6.1875 -5.5 L 7.5625 -5.5 L 7.5625 0 Z M 0.6875 -1.375 L 0.6875 -2.75 L 2.0625 -2.75 L 2.0625 -1.375 Z M 2.0625 -5.5 L 2.0625 -6.875 L 6.1875 -6.875 L 6.1875 -5.5 Z M 2.0625 -5.5 "/></g></g></g><g fill="#000000" fill-opacity="1"><g transform="translate(75.999287, 17.187512)"><g><path d="M 2.0625 -5.5 L 2.0625 -1.375 L 0.6875 -1.375 L 0.6875 -5.5 Z M 2.0625 0 L 2.0625 -1.375 L 6.1875 -1.375 L 6.1875 0 Z M 2.0625 -5.5 L 2.0625 -6.875 L 6.1875 -6.875 L 6.1875 -5.5 Z M 2.0625 -5.5 "/></g></g></g><g fill="#000000" fill-opacity="1"><g transform="translate(82.87045, 17.187512)"><g><path d="M 0.6875 -1.375 L 0.6875 -9.625 L 2.0625 -9.625 L 2.0625 -6.875 L 4.8125 -6.875 L 4.8125 -5.5 L 2.0625 -5.5 L 2.0625 -1.375 Z M 2.0625 0 L 2.0625 -1.375 L 4.8125 -1.375 L 4.8125 0 Z M 2.0625 0 "/></g></g></g><g fill="#000000" fill-opacity="1"><g transform="translate(37.520748, 30.44644)"><g><path d="M 6.1875 -1.375 L 6.1875 0 L 2.0625 0 L 2.0625 -1.375 Z M 0.6875 -1.375 L 0.6875 -9.625 L 2.0625 -9.625 L 2.0625 -1.375 Z M 6.1875 -1.375 L 6.1875 -9.625 L 7.5625 -9.625 L 7.5625 -1.375 Z M 6.1875 -1.375 "/></g></g></g><g fill="#000000" fill-opacity="1"><g transform="translate(45.766149, 30.44644)"><g><path d="M 2.0625 -5.5 L 2.0625 -4.125 L 0.6875 -4.125 L 0.6875 -5.5 Z M 0.6875 0 L 0.6875 -1.375 L 4.8125 -1.375 L 4.8125 0 Z M 2.0625 -2.75 L 2.0625 -4.125 L 4.8125 -4.125 L 4.8125 -2.75 Z M 2.0625 -5.5 L 2.0625 -6.875 L 6.1875 -6.875 L 6.1875 -5.5 Z M 4.8125 -1.375 L 4.8125 -2.75 L 6.1875 -2.75 L 6.1875 -1.375 Z M 4.8125 -1.375 "/></g></g></g></svg>