<svg xmlns="http://www.w3.org/2000/svg" xmlns:xlink="http://www.w3.org/1999/xlink" width="108" zoomAndPan="magnify" viewBox="0 0 81 31.5" height="42" preserveAspectRatio="xMidYMid meet" version="1.0"><defs><g/><clipPath id="c93978a830"><path d="M 4 4 L 25 4 L 25 26.578125 L 4 26.578125 Z M 4 4 " clip-rule="nonzero"/></clipPath><clipPath id="3a206d8376"><path d="M 0.632812 0 L 28.6875 0 L 28.6875 15 L 0.632812 15 Z M 0.632812 0 " clip-rule="nonzero"/></clipPath></defs><g clip-path="url(#c93978a830)"><path fill="#000000" d="M 24.507812 13.511719 Z M 24.507812 13.511719 L 14.664062 4.78125 L 4.8125 13.515625 L 4.8125 25.992188 C 4.8125 26.316406 5.070312 26.574219 5.394531 26.574219 L 11.550781 26.574219 L 11.550781 21.101562 C 11.550781 20.78125 11.808594 20.519531 12.128906 20.519531 L 17.191406 20.519531 C 17.511719 20.519531 17.769531 20.78125 17.769531 21.101562 L 17.769531 26.574219 L 23.929688 26.574219 C 24.25 26.574219 24.507812 26.316406 24.507812 25.992188 L 24.507812 13.507812 Z M 4.8125 13.515625 Z M 4.8125 13.515625 " fill-opacity="1" fill-rule="nonzero"/></g><g clip-path="url(#3a206d8376)"><path fill="#000000" d="M 14.605469 0.00390625 L 0.632812 12.390625 L 2.105469 14.050781 L 14.664062 2.917969 L 27.21875 14.050781 L 28.6875 12.390625 L 14.71875 0.00390625 L 14.664062 0.0664062 Z M 14.605469 0.00390625 " fill-opacity="1" fill-rule="nonzero"/></g><path fill="#000000" d="M 4.8125 1.785156 L 8.351562 1.785156 L 8.324219 3.886719 L 4.8125 7.0625 Z M 4.8125 1.785156 " fill-opacity="1" fill-rule="nonzero"/><g fill="#000000" fill-opacity="1"><g transform="translate(37.233807, 20.651153)"><g><path d="M 0.6875 0 L 0.6875 -9.640625 L 2.0625 -9.640625 L 2.0625 -5.515625 L 6.203125 -5.515625 L 6.203125 -9.640625 L 7.578125 -9.640625 L 7.578125 0 L 6.203125 0 L 6.203125 -4.140625 L 2.0625 -4.140625 L 2.0625 0 Z M 0.6875 0 "/></g></g></g><g fill="#000000" fill-opacity="1"><g transform="translate(45.497947, 20.651153)"><g><path d="M 6.203125 -1.375 L 6.203125 0 L 2.0625 0 L 2.0625 -1.375 Z M 0.6875 -1.375 L 0.6875 -5.515625 L 2.0625 -5.515625 L 2.0625 -1.375 Z M 2.0625 -5.515625 L 2.0625 -6.890625 L 6.203125 -6.890625 L 6.203125 -5.515625 Z M 6.203125 -1.375 L 6.203125 -5.515625 L 7.578125 -5.515625 L 7.578125 -1.375 Z M 6.203125 -1.375 "/></g></g></g><g fill="#000000" fill-opacity="1"><g transform="translate(53.762087, 20.651153)"><g><path d="M 8.953125 0 L 8.953125 -5.515625 L 10.34375 -5.515625 L 10.34375 0 Z M 0.6875 0 L 0.6875 -5.515625 L 2.0625 -5.515625 L 2.0625 0 Z M 2.0625 -5.515625 L 2.0625 -6.890625 L 4.828125 -6.890625 L 4.828125 -5.515625 Z M 4.828125 0 L 4.828125 -5.515625 L 6.203125 -5.515625 L 6.203125 0 Z M 6.203125 -5.515625 L 6.203125 -6.890625 L 8.953125 -6.890625 L 8.953125 -5.515625 Z M 6.203125 -5.515625 "/></g></g></g><g fill="#000000" fill-opacity="1"><g transform="translate(64.780936, 20.651153)"><g><path d="M 0.6875 -1.375 L 0.6875 -5.515625 L 2.0625 -5.515625 L 2.0625 -4.140625 L 6.203125 -4.140625 L 6.203125 -2.75 L 2.0625 -2.75 L 2.0625 -1.375 Z M 2.0625 0 L 2.0625 -1.375 L 6.203125 -1.375 L 6.203125 0 Z M 2.0625 -5.515625 L 2.0625 -6.890625 L 6.203125 -6.890625 L 6.203125 -5.515625 Z M 6.203125 -4.140625 L 6.203125 -5.515625 L 7.578125 -5.515625 L 7.578125 -4.140625 Z M 6.203125 -4.140625 "/></g></g></g></svg>