<svg xmlns="http://www.w3.org/2000/svg" xmlns:xlink="http://www.w3.org/1999/xlink" width="108" zoomAndPan="magnify" viewBox="0 0 81 31.5" height="42" preserveAspectRatio="xMidYMid meet" version="1.0"><defs><g/><clipPath id="7fa9e85ebe"><path d="M 4 4 L 25 4 L 25 26.578125 L 4 26.578125 Z M 4 4 " clip-rule="nonzero"/></clipPath><clipPath id="aa8eb77885"><path d="M 0.632812 0 L 28.6875 0 L 28.6875 15 L 0.632812 15 Z M 0.632812 0 " clip-rule="nonzero"/></clipPath></defs><g clip-path="url(#7fa9e85ebe)"><path fill="#ffffff" d="M 24.597656 13.546875 Z M 24.597656 13.546875 L 14.714844 4.792969 L 4.828125 13.550781 L 4.828125 26.058594 C 4.828125 26.382812 5.085938 26.644531 5.410156 26.644531 L 11.589844 26.644531 L 11.589844 21.15625 C 11.589844 20.832031 11.851562 20.574219 12.171875 20.574219 L 17.25 20.574219 C 17.574219 20.574219 17.832031 20.832031 17.832031 21.15625 L 17.832031 26.644531 L 24.015625 26.644531 C 24.339844 26.644531 24.597656 26.382812 24.597656 26.058594 L 24.597656 13.542969 Z M 4.828125 13.550781 Z M 4.828125 13.550781 " fill-opacity="1" fill-rule="nonzero"/></g><g clip-path="url(#aa8eb77885)"><path fill="#ffffff" d="M 14.65625 0.00390625 L 0.632812 12.421875 L 2.109375 14.085938 L 14.714844 2.925781 L 27.316406 14.085938 L 28.792969 12.421875 L 14.769531 0.00390625 L 14.714844 0.0664062 Z M 14.65625 0.00390625 " fill-opacity="1" fill-rule="nonzero"/></g><path fill="#ffffff" d="M 4.828125 1.789062 L 8.382812 1.789062 L 8.351562 3.898438 L 4.828125 7.082031 Z M 4.828125 1.789062 " fill-opacity="1" fill-rule="nonzero"/><g fill="#ffffff" fill-opacity="1"><g transform="translate(37.233807, 20.651153)"><g><path d="M 0.6875 0 L 0.6875 -9.640625 L 2.0625 -9.640625 L 2.0625 -5.515625 L 6.203125 -5.515625 L 6.203125 -9.640625 L 7.578125 -9.640625 L 7.578125 0 L 6.203125 0 L 6.203125 -4.140625 L 2.0625 -4.140625 L 2.0625 0 Z M 0.6875 0 "/></g></g></g><g fill="#ffffff" fill-opacity="1"><g transform="translate(45.497947, 20.651153)"><g><path d="M 6.203125 -1.375 L 6.203125 0 L 2.0625 0 L 2.0625 -1.375 Z M 0.6875 -1.375 L 0.6875 -5.515625 L 2.0625 -5.515625 L 2.0625 -1.375 Z M 2.0625 -5.515625 L 2.0625 -6.890625 L 6.203125 -6.890625 L 6.203125 -5.515625 Z M 6.203125 -1.375 L 6.203125 -5.515625 L 7.578125 -5.515625 L 7.578125 -1.375 Z M 6.203125 -1.375 "/></g></g></g><g fill="#ffffff" fill-opacity="1"><g transform="translate(53.762087, 20.651153)"><g><path d="M 8.953125 0 L 8.953125 -5.515625 L 10.34375 -5.515625 L 10.34375 0 Z M 0.6875 0 L 0.6875 -5.515625 L 2.0625 -5.515625 L 2.0625 0 Z M 2.0625 -5.515625 L 2.0625 -6.890625 L 4.828125 -6.890625 L 4.828125 -5.515625 Z M 4.828125 0 L 4.828125 -5.515625 L 6.203125 -5.515625 L 6.203125 0 Z M 6.203125 -5.515625 L 6.203125 -6.890625 L 8.953125 -6.890625 L 8.953125 -5.515625 Z M 6.203125 -5.515625 "/></g></g></g><g fill="#ffffff" fill-opacity="1"><g transform="translate(64.780936, 20.651153)"><g><path d="M 0.6875 -1.375 L 0.6875 -5.515625 L 2.0625 -5.515625 L 2.0625 -4.140625 L 6.203125 -4.140625 L 6.203125 -2.75 L 2.0625 -2.75 L 2.0625 -1.375 Z M 2.0625 0 L 2.0625 -1.375 L 6.203125 -1.375 L 6.203125 0 Z M 2.0625 -5.515625 L 2.0625 -6.890625 L 6.203125 -6.890625 L 6.203125 -5.515625 Z M 6.203125 -4.140625 L 6.203125 -5.515625 L 7.578125 -5.515625 L 7.578125 -4.140625 Z M 6.203125 -4.140625 "/></g></g></g></svg>