<svg xmlns="http://www.w3.org/2000/svg" xmlns:xlink="http://www.w3.org/1999/xlink" width="128" zoomAndPan="magnify" viewBox="0 0 96 28.499999" height="38" preserveAspectRatio="xMidYMid meet" version="1.0"><defs><g/><clipPath id="8162abc93c"><path d="M 0.828125 10.351562 L 27.363281 10.351562 L 27.363281 16.984375 L 0.828125 16.984375 Z M 0.828125 10.351562 " clip-rule="nonzero"/></clipPath></defs><g clip-path="url(#8162abc93c)"><path fill="#ffffff" d="M 4.183594 10.351562 C 2.328125 10.351562 0.828125 11.855469 0.828125 13.710938 C 0.828125 15.5625 2.328125 17.066406 4.183594 17.066406 C 6.039062 17.066406 7.542969 15.5625 7.542969 13.710938 C 7.542969 11.855469 6.039062 10.351562 4.183594 10.351562 Z M 24.328125 10.351562 C 22.472656 10.351562 20.96875 11.855469 20.96875 13.710938 C 20.96875 15.5625 22.472656 17.066406 24.328125 17.066406 C 26.183594 17.066406 27.683594 15.5625 27.683594 13.710938 C 27.683594 11.855469 26.183594 10.351562 24.328125 10.351562 Z M 14.257812 10.351562 C 12.402344 10.351562 10.898438 11.855469 10.898438 13.710938 C 10.898438 15.5625 12.402344 17.066406 14.257812 17.066406 C 16.109375 17.066406 17.613281 15.5625 17.613281 13.710938 C 17.613281 11.855469 16.109375 10.351562 14.257812 10.351562 Z M 14.257812 10.351562 " fill-opacity="1" fill-rule="nonzero"/></g><g fill="#ffffff" fill-opacity="1"><g transform="translate(38.11811, 17.394834)"><g><path d="M 6.1875 0 L 6.1875 -6.875 L 4.8125 -6.875 L 4.8125 -8.25 L 6.1875 -8.25 L 6.1875 -9.625 L 7.5625 -9.625 L 7.5625 0 Z M 0.6875 0 L 0.6875 -9.625 L 2.0625 -9.625 L 2.0625 -8.25 L 3.4375 -8.25 L 3.4375 -6.875 L 2.0625 -6.875 L 2.0625 0 Z M 3.4375 -5.5 L 3.4375 -6.875 L 4.8125 -6.875 L 4.8125 -5.5 Z M 3.4375 -5.5 "/></g></g></g><g fill="#ffffff" fill-opacity="1"><g transform="translate(46.36868, 17.394834)"><g><path d="M 6.1875 -1.375 L 6.1875 0 L 2.0625 0 L 2.0625 -1.375 Z M 0.6875 -1.375 L 0.6875 -5.5 L 2.0625 -5.5 L 2.0625 -1.375 Z M 2.0625 -5.5 L 2.0625 -6.875 L 6.1875 -6.875 L 6.1875 -5.5 Z M 6.1875 -1.375 L 6.1875 -5.5 L 7.5625 -5.5 L 7.5625 -1.375 Z M 6.1875 -1.375 "/></g></g></g><g fill="#ffffff" fill-opacity="1"><g transform="translate(54.619249, 17.394834)"><g><path d="M 0.6875 0 L 0.6875 -6.875 L 2.0625 -6.875 L 2.0625 -5.5 L 3.4375 -5.5 L 3.4375 -4.125 L 2.0625 -4.125 L 2.0625 0 Z M 3.4375 -5.5 L 3.4375 -6.875 L 6.1875 -6.875 L 6.1875 -5.5 Z M 3.4375 -5.5 "/></g></g></g><g fill="#ffffff" fill-opacity="1"><g transform="translate(61.49472, 17.394834)"><g><path d="M 0.6875 -1.375 L 0.6875 -5.5 L 2.0625 -5.5 L 2.0625 -4.125 L 6.1875 -4.125 L 6.1875 -2.75 L 2.0625 -2.75 L 2.0625 -1.375 Z M 2.0625 0 L 2.0625 -1.375 L 6.1875 -1.375 L 6.1875 0 Z M 2.0625 -5.5 L 2.0625 -6.875 L 6.1875 -6.875 L 6.1875 -5.5 Z M 6.1875 -4.125 L 6.1875 -5.5 L 7.5625 -5.5 L 7.5625 -4.125 Z M 6.1875 -4.125 "/></g></g></g></svg>