<svg xmlns="http://www.w3.org/2000/svg" xmlns:xlink="http://www.w3.org/1999/xlink" width="128" zoomAndPan="magnify" viewBox="0 0 96 28.499999" height="38" preserveAspectRatio="xMidYMid meet" version="1.0"><defs><g/><clipPath id="e0bf03f7b4"><path d="M 0.828125 10.351562 L 27.363281 10.351562 L 27.363281 16.984375 L 0.828125 16.984375 Z M 0.828125 10.351562 " clip-rule="nonzero"/></clipPath></defs><g clip-path="url(#e0bf03f7b4)"><path fill="#000000" d="M 4.144531 10.351562 C 2.3125 10.351562 0.828125 11.835938 0.828125 13.667969 C 0.828125 15.5 2.3125 16.984375 4.144531 16.984375 C 5.976562 16.984375 7.460938 15.5 7.460938 13.667969 C 7.460938 11.835938 5.976562 10.351562 4.144531 10.351562 Z M 24.046875 10.351562 C 22.210938 10.351562 20.726562 11.835938 20.726562 13.667969 C 20.726562 15.5 22.210938 16.984375 24.046875 16.984375 C 25.878906 16.984375 27.363281 15.5 27.363281 13.667969 C 27.363281 11.835938 25.878906 10.351562 24.046875 10.351562 Z M 14.09375 10.351562 C 12.261719 10.351562 10.777344 11.835938 10.777344 13.667969 C 10.777344 15.5 12.261719 16.984375 14.09375 16.984375 C 15.925781 16.984375 17.410156 15.5 17.410156 13.667969 C 17.410156 11.835938 15.925781 10.351562 14.09375 10.351562 Z M 14.09375 10.351562 " fill-opacity="1" fill-rule="nonzero"/></g><g fill="#000000" fill-opacity="1"><g transform="translate(38.11811, 17.394834)"><g><path d="M 6.1875 0 L 6.1875 -6.875 L 4.8125 -6.875 L 4.8125 -8.25 L 6.1875 -8.25 L 6.1875 -9.625 L 7.5625 -9.625 L 7.5625 0 Z M 0.6875 0 L 0.6875 -9.625 L 2.0625 -9.625 L 2.0625 -8.25 L 3.4375 -8.25 L 3.4375 -6.875 L 2.0625 -6.875 L 2.0625 0 Z M 3.4375 -5.5 L 3.4375 -6.875 L 4.8125 -6.875 L 4.8125 -5.5 Z M 3.4375 -5.5 "/></g></g></g><g fill="#000000" fill-opacity="1"><g transform="translate(46.36868, 17.394834)"><g><path d="M 6.1875 -1.375 L 6.1875 0 L 2.0625 0 L 2.0625 -1.375 Z M 0.6875 -1.375 L 0.6875 -5.5 L 2.0625 -5.5 L 2.0625 -1.375 Z M 2.0625 -5.5 L 2.0625 -6.875 L 6.1875 -6.875 L 6.1875 -5.5 Z M 6.1875 -1.375 L 6.1875 -5.5 L 7.5625 -5.5 L 7.5625 -1.375 Z M 6.1875 -1.375 "/></g></g></g><g fill="#000000" fill-opacity="1"><g transform="translate(54.619249, 17.394834)"><g><path d="M 0.6875 0 L 0.6875 -6.875 L 2.0625 -6.875 L 2.0625 -5.5 L 3.4375 -5.5 L 3.4375 -4.125 L 2.0625 -4.125 L 2.0625 0 Z M 3.4375 -5.5 L 3.4375 -6.875 L 6.1875 -6.875 L 6.1875 -5.5 Z M 3.4375 -5.5 "/></g></g></g><g fill="#000000" fill-opacity="1"><g transform="translate(61.49472, 17.394834)"><g><path d="M 0.6875 -1.375 L 0.6875 -5.5 L 2.0625 -5.5 L 2.0625 -4.125 L 6.1875 -4.125 L 6.1875 -2.75 L 2.0625 -2.75 L 2.0625 -1.375 Z M 2.0625 0 L 2.0625 -1.375 L 6.1875 -1.375 L 6.1875 0 Z M 2.0625 -5.5 L 2.0625 -6.875 L 6.1875 -6.875 L 6.1875 -5.5 Z M 6.1875 -4.125 L 6.1875 -5.5 L 7.5625 -5.5 L 7.5625 -4.125 Z M 6.1875 -4.125 "/></g></g></g></svg>