<svg xmlns="http://www.w3.org/2000/svg" xmlns:xlink="http://www.w3.org/1999/xlink" width="129" zoomAndPan="magnify" viewBox="0 0 96.75 30.750001" height="41" preserveAspectRatio="xMidYMid meet" version="1.0"><defs><g/><clipPath id="e158c91e76"><path d="M 0.265625 1.640625 L 30.480469 1.640625 L 30.480469 30.007812 L 0.265625 30.007812 Z M 0.265625 1.640625 " clip-rule="nonzero"/></clipPath></defs><g fill="#ffffff" fill-opacity="1"><g transform="translate(39.101346, 17.358885)"><g><path d="M 6.25 0 L 6.25 -4.15625 L 4.859375 -4.15625 L 4.859375 -5.546875 L 6.25 -5.546875 L 6.25 -9.71875 L 7.625 -9.71875 L 7.625 0 Z M 0.6875 0 L 0.6875 -9.71875 L 2.078125 -9.71875 L 2.078125 -8.328125 L 3.46875 -8.328125 L 3.46875 -6.9375 L 2.078125 -6.9375 L 2.078125 0 Z M 3.46875 -5.546875 L 3.46875 -6.9375 L 4.859375 -6.9375 L 4.859375 -5.546875 Z M 3.46875 -5.546875 "/></g></g></g><g fill="#ffffff" fill-opacity="1"><g transform="translate(47.428959, 17.358885)"><g><path d="M 0.6875 -1.390625 L 0.6875 -5.546875 L 2.078125 -5.546875 L 2.078125 -4.15625 L 6.25 -4.15625 L 6.25 -2.78125 L 2.078125 -2.78125 L 2.078125 -1.390625 Z M 2.078125 0 L 2.078125 -1.390625 L 6.25 -1.390625 L 6.25 0 Z M 2.078125 -5.546875 L 2.078125 -6.9375 L 6.25 -6.9375 L 6.25 -5.546875 Z M 6.25 -4.15625 L 6.25 -5.546875 L 7.625 -5.546875 L 7.625 -4.15625 Z M 6.25 -4.15625 "/></g></g></g><g fill="#ffffff" fill-opacity="1"><g transform="translate(55.756571, 17.358885)"><g><path d="M 11.796875 -2.78125 L 11.796875 -1.390625 L 10.40625 -1.390625 L 10.40625 -2.78125 Z M 0.6875 -2.78125 L 0.6875 -6.9375 L 2.078125 -6.9375 L 2.078125 -2.78125 Z M 2.078125 -1.390625 L 2.078125 -2.78125 L 3.46875 -2.78125 L 3.46875 -1.390625 Z M 3.46875 0 L 3.46875 -1.390625 L 4.859375 -1.390625 L 4.859375 0 Z M 4.859375 -1.390625 L 4.859375 -2.78125 L 6.25 -2.78125 L 6.25 -1.390625 Z M 6.25 -2.78125 L 6.25 -6.9375 L 7.625 -6.9375 L 7.625 -2.78125 Z M 7.625 -1.390625 L 7.625 -2.78125 L 9.015625 -2.78125 L 9.015625 -1.390625 Z M 9.015625 0 L 9.015625 -1.390625 L 10.40625 -1.390625 L 10.40625 0 Z M 11.796875 -2.78125 L 11.796875 -6.9375 L 13.1875 -6.9375 L 13.1875 -2.78125 Z M 11.796875 -2.78125 "/></g></g></g><g fill="#ffffff" fill-opacity="1"><g transform="translate(69.635919, 17.358885)"><g><path d="M 2.078125 -5.546875 L 2.078125 -4.15625 L 0.6875 -4.15625 L 0.6875 -5.546875 Z M 0.6875 0 L 0.6875 -1.390625 L 4.859375 -1.390625 L 4.859375 0 Z M 2.078125 -2.78125 L 2.078125 -4.15625 L 4.859375 -4.15625 L 4.859375 -2.78125 Z M 2.078125 -5.546875 L 2.078125 -6.9375 L 6.25 -6.9375 L 6.25 -5.546875 Z M 4.859375 -1.390625 L 4.859375 -2.78125 L 6.25 -2.78125 L 6.25 -1.390625 Z M 4.859375 -1.390625 "/></g></g></g><g clip-path="url(#e158c91e76)"><path fill="#ffffff" d="M 29.574219 3.542969 L 26.738281 3.542969 L 26.738281 2.597656 C 26.738281 2.074219 26.316406 1.652344 25.792969 1.652344 L 1.210938 1.652344 C 0.691406 1.652344 0.265625 2.074219 0.265625 2.597656 L 0.265625 27.179688 C 0.265625 28.742188 1.539062 30.015625 3.101562 30.015625 L 27.683594 30.015625 C 29.25 30.015625 30.519531 28.742188 30.519531 27.179688 L 30.519531 4.488281 C 30.519531 3.964844 30.097656 3.542969 29.574219 3.542969 Z M 28.628906 27.179688 C 28.628906 27.699219 28.207031 28.125 27.683594 28.125 L 3.101562 28.125 C 2.582031 28.125 2.15625 27.699219 2.15625 27.179688 L 2.15625 3.542969 L 24.847656 3.542969 L 24.847656 22.453125 L 26.738281 22.453125 L 26.738281 5.433594 L 28.628906 5.433594 Z M 28.628906 27.179688 " fill-opacity="1" fill-rule="nonzero"/></g><path fill="#ffffff" d="M 14.449219 16.777344 L 4.992188 16.777344 C 4.472656 16.777344 4.046875 17.203125 4.046875 17.722656 L 4.046875 25.289062 C 4.046875 25.808594 4.472656 26.234375 4.992188 26.234375 L 14.449219 26.234375 C 14.96875 26.234375 15.394531 25.808594 15.394531 25.289062 L 15.394531 17.722656 C 15.394531 17.203125 14.96875 16.777344 14.449219 16.777344 Z M 13.503906 24.34375 L 5.9375 24.34375 L 5.9375 18.671875 L 13.503906 18.671875 Z M 13.503906 24.34375 " fill-opacity="1" fill-rule="nonzero"/><path fill="#ffffff" d="M 24.847656 24.34375 L 26.738281 24.34375 L 26.738281 26.234375 L 24.847656 26.234375 Z M 24.847656 24.34375 " fill-opacity="1" fill-rule="nonzero"/><path fill="#ffffff" d="M 4.046875 9.214844 L 22.957031 9.214844 L 22.957031 11.105469 L 4.046875 11.105469 Z M 4.046875 9.214844 " fill-opacity="1" fill-rule="nonzero"/><path fill="#ffffff" d="M 4.046875 5.433594 L 22.957031 5.433594 L 22.957031 7.324219 L 4.046875 7.324219 Z M 4.046875 5.433594 " fill-opacity="1" fill-rule="nonzero"/><path fill="#ffffff" d="M 4.046875 12.996094 L 22.957031 12.996094 L 22.957031 14.886719 L 4.046875 14.886719 Z M 4.046875 12.996094 " fill-opacity="1" fill-rule="nonzero"/><path fill="#ffffff" d="M 17.285156 16.777344 L 22.957031 16.777344 L 22.957031 18.671875 L 17.285156 18.671875 Z M 17.285156 16.777344 " fill-opacity="1" fill-rule="nonzero"/><path fill="#ffffff" d="M 17.285156 20.5625 L 22.957031 20.5625 L 22.957031 22.453125 L 17.285156 22.453125 Z M 17.285156 20.5625 " fill-opacity="1" fill-rule="nonzero"/><path fill="#ffffff" d="M 17.285156 24.34375 L 22.957031 24.34375 L 22.957031 26.234375 L 17.285156 26.234375 Z M 17.285156 24.34375 " fill-opacity="1" fill-rule="nonzero"/></svg>