<svg xmlns="http://www.w3.org/2000/svg" xmlns:xlink="http://www.w3.org/1999/xlink" width="125" zoomAndPan="magnify" viewBox="0 0 93.75 28.499999" height="38" preserveAspectRatio="xMidYMid meet" version="1.0"><defs><g/><clipPath id="5f174921cf"><path d="M 22 1.148438 L 25.746094 1.148438 L 25.746094 25 L 22 25 Z M 22 1.148438 " clip-rule="nonzero"/></clipPath><clipPath id="ec2ee0cd06"><path d="M 0.683594 8 L 9 8 L 9 17 L 0.683594 17 Z M 0.683594 8 " clip-rule="nonzero"/></clipPath><clipPath id="5623189c29"><path d="M 4 3 L 23 3 L 23 26.210938 L 4 26.210938 Z M 4 3 " clip-rule="nonzero"/></clipPath></defs><g clip-path="url(#5f174921cf)"><path fill="#ffffff" d="M 24.300781 24.457031 C 24.5 24.457031 24.6875 24.417969 24.871094 24.34375 C 25.054688 24.269531 25.214844 24.160156 25.355469 24.019531 C 25.496094 23.878906 25.605469 23.71875 25.679688 23.535156 C 25.757812 23.351562 25.792969 23.160156 25.792969 22.964844 L 25.792969 2.636719 C 25.792969 2.4375 25.757812 2.246094 25.679688 2.0625 C 25.605469 1.878906 25.496094 1.71875 25.355469 1.578125 C 25.214844 1.4375 25.054688 1.332031 24.871094 1.253906 C 24.6875 1.179688 24.5 1.140625 24.300781 1.140625 C 24.101562 1.140625 23.910156 1.179688 23.726562 1.253906 C 23.542969 1.332031 23.382812 1.4375 23.242188 1.578125 C 23.101562 1.71875 22.996094 1.878906 22.917969 2.0625 C 22.84375 2.246094 22.804688 2.4375 22.804688 2.636719 L 22.804688 22.964844 C 22.804688 23.160156 22.84375 23.351562 22.917969 23.535156 C 22.996094 23.71875 23.101562 23.878906 23.242188 24.019531 C 23.382812 24.160156 23.546875 24.269531 23.726562 24.34375 C 23.910156 24.417969 24.101562 24.457031 24.300781 24.457031 Z M 24.300781 24.457031 " fill-opacity="1" fill-rule="nonzero"/></g><g clip-path="url(#ec2ee0cd06)"><path fill="#ffffff" d="M 4.570312 16.6875 L 8.457031 16.6875 L 8.457031 8.914062 L 4.570312 8.914062 C 4.054688 8.914062 3.558594 9.011719 3.082031 9.210938 C 2.605469 9.40625 2.1875 9.6875 1.824219 10.050781 C 1.457031 10.417969 1.175781 10.835938 0.980469 11.3125 C 0.78125 11.789062 0.683594 12.285156 0.683594 12.800781 C 0.683594 13.316406 0.78125 13.8125 0.980469 14.285156 C 1.175781 14.761719 1.457031 15.183594 1.824219 15.546875 C 2.1875 15.910156 2.605469 16.191406 3.082031 16.390625 C 3.558594 16.585938 4.054688 16.6875 4.570312 16.6875 Z M 4.570312 16.6875 " fill-opacity="1" fill-rule="nonzero"/></g><g clip-path="url(#5623189c29)"><path fill="#ffffff" d="M 12.269531 22.066406 L 9.71875 22.066406 L 8.523438 17.285156 L 4.570312 17.285156 C 4.496094 17.285156 4.425781 17.277344 4.351562 17.273438 L 6.425781 25.574219 C 6.476562 25.773438 6.582031 25.933594 6.746094 26.0625 C 6.90625 26.1875 7.089844 26.25 7.296875 26.25 L 9.617188 26.25 C 10.183594 26.265625 10.636719 25.683594 10.484375 25.136719 L 9.867188 22.664062 L 12.269531 22.664062 C 13.21875 22.6875 13.972656 21.714844 13.714844 20.796875 L 13.03125 18.449219 L 22.207031 22.289062 L 22.207031 3.308594 L 9.054688 8.8125 L 9.054688 16.785156 L 12.320312 18.152344 L 13.140625 20.953125 C 13.292969 21.496094 12.835938 22.082031 12.269531 22.066406 Z M 12.269531 22.066406 " fill-opacity="1" fill-rule="nonzero"/></g><g fill="#ffffff" fill-opacity="1"><g transform="translate(35.721802, 17.394834)"><g><path d="M 6.1875 -1.375 L 6.1875 0 L 2.0625 0 L 2.0625 -1.375 Z M 0.6875 -1.375 L 0.6875 -8.25 L 2.0625 -8.25 L 2.0625 -1.375 Z M 2.0625 -8.25 L 2.0625 -9.625 L 6.1875 -9.625 L 6.1875 -8.25 Z M 6.1875 -1.375 L 6.1875 -8.25 L 7.5625 -8.25 L 7.5625 -1.375 Z M 6.1875 -1.375 "/></g></g></g><g fill="#ffffff" fill-opacity="1"><g transform="translate(43.972372, 17.394834)"><g><path d="M 0.6875 0 L 0.6875 -8.25 L 2.0625 -8.25 L 2.0625 -6.875 L 4.8125 -6.875 L 4.8125 -5.5 L 2.0625 -5.5 L 2.0625 0 Z M 2.0625 -8.25 L 2.0625 -9.625 L 4.8125 -9.625 L 4.8125 -8.25 Z M 2.0625 -8.25 "/></g></g></g><g fill="#ffffff" fill-opacity="1"><g transform="translate(49.472755, 17.394834)"><g><path d="M 0.6875 0 L 0.6875 -8.25 L 2.0625 -8.25 L 2.0625 -6.875 L 4.8125 -6.875 L 4.8125 -5.5 L 2.0625 -5.5 L 2.0625 0 Z M 2.0625 -8.25 L 2.0625 -9.625 L 4.8125 -9.625 L 4.8125 -8.25 Z M 2.0625 -8.25 "/></g></g></g><g fill="#ffffff" fill-opacity="1"><g transform="translate(54.973139, 17.394834)"><g><path d="M 0.6875 -1.375 L 0.6875 -5.5 L 2.0625 -5.5 L 2.0625 -4.125 L 6.1875 -4.125 L 6.1875 -2.75 L 2.0625 -2.75 L 2.0625 -1.375 Z M 2.0625 0 L 2.0625 -1.375 L 6.1875 -1.375 L 6.1875 0 Z M 2.0625 -5.5 L 2.0625 -6.875 L 6.1875 -6.875 L 6.1875 -5.5 Z M 6.1875 -4.125 L 6.1875 -5.5 L 7.5625 -5.5 L 7.5625 -4.125 Z M 6.1875 -4.125 "/></g></g></g><g fill="#ffffff" fill-opacity="1"><g transform="translate(63.223708, 17.394834)"><g><path d="M 0.6875 0 L 0.6875 -6.875 L 2.0625 -6.875 L 2.0625 -5.5 L 3.4375 -5.5 L 3.4375 -4.125 L 2.0625 -4.125 L 2.0625 0 Z M 3.4375 -5.5 L 3.4375 -6.875 L 6.1875 -6.875 L 6.1875 -5.5 Z M 3.4375 -5.5 "/></g></g></g></svg>