<svg xmlns="http://www.w3.org/2000/svg" xmlns:xlink="http://www.w3.org/1999/xlink" width="125" zoomAndPan="magnify" viewBox="0 0 93.75 28.499999" height="38" preserveAspectRatio="xMidYMid meet" version="1.0"><defs><g/><clipPath id="cfb81e4135"><path d="M 22 1.148438 L 25.746094 1.148438 L 25.746094 25 L 22 25 Z M 22 1.148438 " clip-rule="nonzero"/></clipPath><clipPath id="c50f10bf35"><path d="M 0.683594 8 L 9 8 L 9 17 L 0.683594 17 Z M 0.683594 8 " clip-rule="nonzero"/></clipPath><clipPath id="6bfae75251"><path d="M 4 3 L 23 3 L 23 26.210938 L 4 26.210938 Z M 4 3 " clip-rule="nonzero"/></clipPath></defs><g clip-path="url(#cfb81e4135)"><path fill="#000000" d="M 24.253906 24.40625 C 24.449219 24.40625 24.640625 24.367188 24.824219 24.289062 C 25.007812 24.214844 25.167969 24.105469 25.308594 23.96875 C 25.445312 23.828125 25.554688 23.667969 25.628906 23.484375 C 25.707031 23.300781 25.746094 23.109375 25.746094 22.914062 L 25.746094 2.632812 C 25.746094 2.433594 25.707031 2.246094 25.632812 2.0625 C 25.554688 1.878906 25.449219 1.71875 25.308594 1.578125 C 25.167969 1.4375 25.007812 1.332031 24.824219 1.253906 C 24.640625 1.179688 24.449219 1.140625 24.253906 1.140625 C 24.054688 1.140625 23.863281 1.179688 23.683594 1.253906 C 23.5 1.332031 23.339844 1.4375 23.199219 1.578125 C 23.058594 1.71875 22.949219 1.878906 22.875 2.0625 C 22.800781 2.246094 22.761719 2.433594 22.761719 2.632812 L 22.761719 22.914062 C 22.761719 23.109375 22.800781 23.300781 22.875 23.484375 C 22.949219 23.667969 23.058594 23.828125 23.199219 23.96875 C 23.339844 24.105469 23.5 24.214844 23.683594 24.289062 C 23.863281 24.367188 24.054688 24.40625 24.253906 24.40625 Z M 24.253906 24.40625 " fill-opacity="1" fill-rule="nonzero"/></g><g clip-path="url(#c50f10bf35)"><path fill="#000000" d="M 4.5625 16.648438 L 8.441406 16.648438 L 8.441406 8.894531 L 4.5625 8.894531 C 4.046875 8.894531 3.554688 8.992188 3.078125 9.191406 C 2.601562 9.386719 2.183594 9.667969 1.820312 10.03125 C 1.457031 10.394531 1.175781 10.8125 0.980469 11.289062 C 0.78125 11.765625 0.683594 12.257812 0.683594 12.773438 C 0.683594 13.289062 0.78125 13.78125 0.980469 14.257812 C 1.175781 14.730469 1.457031 15.152344 1.820312 15.515625 C 2.183594 15.878906 2.601562 16.160156 3.078125 16.355469 C 3.554688 16.550781 4.046875 16.648438 4.5625 16.648438 Z M 4.5625 16.648438 " fill-opacity="1" fill-rule="nonzero"/></g><g clip-path="url(#6bfae75251)"><path fill="#000000" d="M 12.246094 22.019531 L 9.699219 22.019531 L 8.507812 17.246094 L 4.5625 17.246094 C 4.488281 17.246094 4.417969 17.238281 4.34375 17.234375 L 6.414062 25.515625 C 6.464844 25.714844 6.570312 25.878906 6.734375 26.003906 C 6.894531 26.132812 7.078125 26.195312 7.285156 26.195312 L 9.597656 26.195312 C 10.164062 26.210938 10.617188 25.625 10.464844 25.082031 L 9.847656 22.613281 L 12.246094 22.613281 C 13.195312 22.636719 13.949219 21.667969 13.691406 20.75 L 13.007812 18.410156 L 22.164062 22.242188 L 22.164062 3.304688 L 9.039062 8.796875 L 9.039062 16.75 L 12.296875 18.113281 L 13.113281 20.90625 C 13.265625 21.449219 12.8125 22.035156 12.246094 22.019531 Z M 12.246094 22.019531 " fill-opacity="1" fill-rule="nonzero"/></g><g fill="#000000" fill-opacity="1"><g transform="translate(35.721802, 17.394834)"><g><path d="M 6.1875 -1.375 L 6.1875 0 L 2.0625 0 L 2.0625 -1.375 Z M 0.6875 -1.375 L 0.6875 -8.25 L 2.0625 -8.25 L 2.0625 -1.375 Z M 2.0625 -8.25 L 2.0625 -9.625 L 6.1875 -9.625 L 6.1875 -8.25 Z M 6.1875 -1.375 L 6.1875 -8.25 L 7.5625 -8.25 L 7.5625 -1.375 Z M 6.1875 -1.375 "/></g></g></g><g fill="#000000" fill-opacity="1"><g transform="translate(43.972372, 17.394834)"><g><path d="M 0.6875 0 L 0.6875 -8.25 L 2.0625 -8.25 L 2.0625 -6.875 L 4.8125 -6.875 L 4.8125 -5.5 L 2.0625 -5.5 L 2.0625 0 Z M 2.0625 -8.25 L 2.0625 -9.625 L 4.8125 -9.625 L 4.8125 -8.25 Z M 2.0625 -8.25 "/></g></g></g><g fill="#000000" fill-opacity="1"><g transform="translate(49.472755, 17.394834)"><g><path d="M 0.6875 0 L 0.6875 -8.25 L 2.0625 -8.25 L 2.0625 -6.875 L 4.8125 -6.875 L 4.8125 -5.5 L 2.0625 -5.5 L 2.0625 0 Z M 2.0625 -8.25 L 2.0625 -9.625 L 4.8125 -9.625 L 4.8125 -8.25 Z M 2.0625 -8.25 "/></g></g></g><g fill="#000000" fill-opacity="1"><g transform="translate(54.973139, 17.394834)"><g><path d="M 0.6875 -1.375 L 0.6875 -5.5 L 2.0625 -5.5 L 2.0625 -4.125 L 6.1875 -4.125 L 6.1875 -2.75 L 2.0625 -2.75 L 2.0625 -1.375 Z M 2.0625 0 L 2.0625 -1.375 L 6.1875 -1.375 L 6.1875 0 Z M 2.0625 -5.5 L 2.0625 -6.875 L 6.1875 -6.875 L 6.1875 -5.5 Z M 6.1875 -4.125 L 6.1875 -5.5 L 7.5625 -5.5 L 7.5625 -4.125 Z M 6.1875 -4.125 "/></g></g></g><g fill="#000000" fill-opacity="1"><g transform="translate(63.223708, 17.394834)"><g><path d="M 0.6875 0 L 0.6875 -6.875 L 2.0625 -6.875 L 2.0625 -5.5 L 3.4375 -5.5 L 3.4375 -4.125 L 2.0625 -4.125 L 2.0625 0 Z M 3.4375 -5.5 L 3.4375 -6.875 L 6.1875 -6.875 L 6.1875 -5.5 Z M 3.4375 -5.5 "/></g></g></g></svg>