<svg xmlns="http://www.w3.org/2000/svg" xmlns:xlink="http://www.w3.org/1999/xlink" width="126" zoomAndPan="magnify" viewBox="0 0 94.5 29.25" height="39" preserveAspectRatio="xMidYMid meet" version="1.0"><defs><g/><clipPath id="aac5473cf5"><path d="M 0.9375 0 L 28.726562 0 L 28.726562 27.789062 L 0.9375 27.789062 Z M 0.9375 0 " clip-rule="nonzero"/></clipPath></defs><g clip-path="url(#aac5473cf5)"><path fill="#000000" d="M 27.714844 16.066406 C 28.257812 16.066406 28.703125 15.621094 28.703125 15.074219 L 28.703125 12.679688 C 28.703125 12.132812 28.257812 11.6875 27.714844 11.6875 L 26.683594 11.6875 C 26.136719 11.6875 25.5625 11.261719 25.402344 10.738281 L 24.523438 8.609375 C 24.265625 8.128906 24.371094 7.417969 24.753906 7.035156 L 25.484375 6.304688 C 25.867188 5.917969 25.867188 5.289062 25.484375 4.902344 L 23.789062 3.207031 C 23.402344 2.824219 22.773438 2.824219 22.386719 3.207031 L 21.65625 3.9375 C 21.273438 4.324219 20.5625 4.425781 20.082031 4.167969 L 17.953125 3.289062 C 17.429688 3.128906 17.003906 2.554688 17.003906 2.007812 L 17.003906 0.980469 C 17.003906 0.433594 16.558594 -0.0117188 16.011719 -0.0117188 L 13.617188 -0.0117188 C 13.070312 -0.0117188 12.625 0.433594 12.625 0.980469 L 12.625 2.007812 C 12.625 2.554688 12.199219 3.128906 11.679688 3.289062 L 9.546875 4.167969 C 9.066406 4.425781 8.355469 4.324219 7.972656 3.9375 L 7.242188 3.207031 C 6.859375 2.824219 6.226562 2.824219 5.839844 3.207031 L 4.144531 4.902344 C 3.761719 5.289062 3.761719 5.917969 4.144531 6.304688 L 4.875 7.035156 C 5.261719 7.417969 5.363281 8.128906 5.105469 8.609375 L 4.230469 10.738281 C 4.070312 11.261719 3.492188 11.6875 2.945312 11.6875 L 1.917969 11.6875 C 1.371094 11.6875 0.925781 12.132812 0.925781 12.679688 L 0.925781 15.074219 C 0.925781 15.621094 1.371094 16.066406 1.917969 16.066406 L 2.945312 16.066406 C 3.492188 16.066406 4.070312 16.492188 4.230469 17.015625 L 5.109375 19.148438 C 5.367188 19.625 5.261719 20.335938 4.875 20.71875 L 4.148438 21.449219 C 3.761719 21.835938 3.761719 22.464844 4.148438 22.851562 L 5.839844 24.546875 C 6.226562 24.929688 6.859375 24.929688 7.242188 24.546875 L 7.972656 23.816406 C 8.359375 23.433594 9.066406 23.328125 9.546875 23.585938 L 11.679688 24.464844 C 12.199219 24.625 12.625 25.199219 12.625 25.746094 L 12.625 26.777344 C 12.625 27.320312 13.070312 27.765625 13.617188 27.765625 L 16.011719 27.765625 C 16.558594 27.765625 17.003906 27.320312 17.003906 26.777344 L 17.003906 25.746094 C 17.003906 25.199219 17.429688 24.625 17.953125 24.464844 L 20.085938 23.585938 C 20.5625 23.328125 21.273438 23.429688 21.65625 23.816406 L 22.386719 24.546875 C 22.773438 24.929688 23.402344 24.929688 23.789062 24.546875 L 25.484375 22.851562 C 25.867188 22.464844 25.871094 21.835938 25.484375 21.449219 L 24.753906 20.71875 C 24.371094 20.335938 24.265625 19.625 24.523438 19.144531 L 25.402344 17.015625 C 25.5625 16.492188 26.136719 16.066406 26.683594 16.066406 Z M 14.816406 19.589844 C 11.660156 19.589844 9.101562 17.03125 9.101562 13.878906 C 9.101562 10.722656 11.660156 8.164062 14.816406 8.164062 C 17.96875 8.164062 20.527344 10.722656 20.527344 13.878906 C 20.527344 17.03125 17.96875 19.589844 14.816406 19.589844 Z M 14.816406 19.589844 " fill-opacity="1" fill-rule="nonzero"/></g><g fill="#000000" fill-opacity="1"><g transform="translate(36.624941, 17.607095)"><g><path d="M 6.140625 -1.359375 L 6.140625 0 L 2.046875 0 L 2.046875 -1.359375 Z M 0.6875 -1.359375 L 0.6875 -8.1875 L 2.046875 -8.1875 L 2.046875 -1.359375 Z M 2.046875 -8.1875 L 2.046875 -9.546875 L 6.140625 -9.546875 L 6.140625 -8.1875 Z M 6.140625 -1.359375 L 6.140625 -8.1875 L 7.5 -8.1875 L 7.5 -1.359375 Z M 6.140625 -1.359375 "/></g></g></g><g fill="#000000" fill-opacity="1"><g transform="translate(44.810375, 17.607095)"><g><path d="M 0.6875 2.734375 L 0.6875 -6.828125 L 6.140625 -6.828125 L 6.140625 -5.453125 L 2.046875 -5.453125 L 2.046875 -1.359375 L 6.140625 -1.359375 L 6.140625 0 L 2.046875 0 L 2.046875 2.734375 Z M 6.140625 -1.359375 L 6.140625 -5.453125 L 7.5 -5.453125 L 7.5 -1.359375 Z M 6.140625 -1.359375 "/></g></g></g><g fill="#000000" fill-opacity="1"><g transform="translate(52.995808, 17.607095)"><g><path d="M 0.6875 -1.359375 L 0.6875 -9.546875 L 2.046875 -9.546875 L 2.046875 -6.828125 L 4.78125 -6.828125 L 4.78125 -5.453125 L 2.046875 -5.453125 L 2.046875 -1.359375 Z M 2.046875 0 L 2.046875 -1.359375 L 4.78125 -1.359375 L 4.78125 0 Z M 2.046875 0 "/></g></g></g><g fill="#000000" fill-opacity="1"><g transform="translate(58.452768, 17.607095)"><g><path d="M 0.6875 0 L 0.6875 -6.828125 L 2.046875 -6.828125 L 2.046875 0 Z M 0.6875 -8.1875 L 0.6875 -9.546875 L 2.046875 -9.546875 L 2.046875 -8.1875 Z M 0.6875 -8.1875 "/></g></g></g><g fill="#000000" fill-opacity="1"><g transform="translate(61.181242, 17.607095)"><g><path d="M 6.140625 -1.359375 L 6.140625 0 L 2.046875 0 L 2.046875 -1.359375 Z M 0.6875 -1.359375 L 0.6875 -5.453125 L 2.046875 -5.453125 L 2.046875 -1.359375 Z M 2.046875 -5.453125 L 2.046875 -6.828125 L 6.140625 -6.828125 L 6.140625 -5.453125 Z M 6.140625 -1.359375 L 6.140625 -5.453125 L 7.5 -5.453125 L 7.5 -1.359375 Z M 6.140625 -1.359375 "/></g></g></g><g fill="#000000" fill-opacity="1"><g transform="translate(69.366676, 17.607095)"><g><path d="M 6.140625 0 L 6.140625 -5.453125 L 7.5 -5.453125 L 7.5 0 Z M 0.6875 0 L 0.6875 -5.453125 L 2.046875 -5.453125 L 2.046875 0 Z M 2.046875 -5.453125 L 2.046875 -6.828125 L 6.140625 -6.828125 L 6.140625 -5.453125 Z M 2.046875 -5.453125 "/></g></g></g><g fill="#000000" fill-opacity="1"><g transform="translate(77.55211, 17.607095)"><g><path d="M 2.046875 -5.453125 L 2.046875 -4.09375 L 0.6875 -4.09375 L 0.6875 -5.453125 Z M 0.6875 0 L 0.6875 -1.359375 L 4.78125 -1.359375 L 4.78125 0 Z M 2.046875 -2.734375 L 2.046875 -4.09375 L 4.78125 -4.09375 L 4.78125 -2.734375 Z M 2.046875 -5.453125 L 2.046875 -6.828125 L 6.140625 -6.828125 L 6.140625 -5.453125 Z M 4.78125 -1.359375 L 4.78125 -2.734375 L 6.140625 -2.734375 L 6.140625 -1.359375 Z M 4.78125 -1.359375 "/></g></g></g></svg>