<svg xmlns="http://www.w3.org/2000/svg" xmlns:xlink="http://www.w3.org/1999/xlink" width="126" zoomAndPan="magnify" viewBox="0 0 94.5 29.25" height="39" preserveAspectRatio="xMidYMid meet" version="1.0"><defs><g/><clipPath id="46a8c3b8ad"><path d="M 0.9375 0 L 28.726562 0 L 28.726562 27.789062 L 0.9375 27.789062 Z M 0.9375 0 " clip-rule="nonzero"/></clipPath></defs><g clip-path="url(#46a8c3b8ad)"><path fill="#ffffff" d="M 27.8125 16.125 C 28.359375 16.125 28.808594 15.679688 28.808594 15.132812 L 28.808594 12.726562 C 28.808594 12.179688 28.359375 11.730469 27.8125 11.730469 L 26.777344 11.730469 C 26.230469 11.730469 25.652344 11.300781 25.492188 10.78125 L 24.609375 8.640625 C 24.351562 8.15625 24.457031 7.445312 24.84375 7.058594 L 25.574219 6.328125 C 25.960938 5.941406 25.960938 5.308594 25.574219 4.921875 L 23.875 3.21875 C 23.484375 2.832031 22.851562 2.832031 22.464844 3.21875 L 21.734375 3.953125 C 21.347656 4.339844 20.636719 4.441406 20.15625 4.183594 L 18.015625 3.304688 C 17.492188 3.140625 17.0625 2.5625 17.0625 2.015625 L 17.0625 0.984375 C 17.0625 0.433594 16.617188 -0.0117188 16.070312 -0.0117188 L 13.664062 -0.0117188 C 13.117188 -0.0117188 12.667969 0.433594 12.667969 0.984375 L 12.667969 2.015625 C 12.667969 2.5625 12.238281 3.140625 11.71875 3.304688 L 9.578125 4.183594 C 9.09375 4.441406 8.382812 4.339844 7.996094 3.953125 L 7.265625 3.21875 C 6.878906 2.832031 6.246094 2.832031 5.859375 3.21875 L 4.160156 4.921875 C 3.769531 5.308594 3.769531 5.941406 4.160156 6.328125 L 4.890625 7.058594 C 5.277344 7.445312 5.382812 8.15625 5.121094 8.640625 L 4.242188 10.78125 C 4.082031 11.300781 3.5 11.730469 2.953125 11.730469 L 1.921875 11.730469 C 1.375 11.730469 0.925781 12.179688 0.925781 12.726562 L 0.925781 15.132812 C 0.925781 15.679688 1.375 16.125 1.921875 16.125 L 2.953125 16.125 C 3.5 16.125 4.082031 16.554688 4.242188 17.078125 L 5.121094 19.21875 C 5.382812 19.699219 5.277344 20.410156 4.890625 20.796875 L 4.160156 21.527344 C 3.773438 21.914062 3.773438 22.546875 4.160156 22.9375 L 5.859375 24.636719 C 6.246094 25.023438 6.878906 25.023438 7.265625 24.636719 L 7.996094 23.90625 C 8.386719 23.519531 9.097656 23.414062 9.578125 23.671875 L 11.71875 24.554688 C 12.242188 24.714844 12.667969 25.292969 12.667969 25.839844 L 12.667969 26.875 C 12.667969 27.421875 13.117188 27.871094 13.664062 27.871094 L 16.070312 27.871094 C 16.617188 27.871094 17.0625 27.421875 17.0625 26.875 L 17.0625 25.839844 C 17.0625 25.292969 17.492188 24.714844 18.015625 24.554688 L 20.15625 23.671875 C 20.636719 23.414062 21.347656 23.519531 21.734375 23.90625 L 22.464844 24.636719 C 22.851562 25.023438 23.488281 25.023438 23.875 24.636719 L 25.574219 22.9375 C 25.960938 22.550781 25.960938 21.914062 25.574219 21.527344 L 24.84375 20.796875 C 24.457031 20.410156 24.351562 19.699219 24.609375 19.21875 L 25.492188 17.078125 C 25.652344 16.554688 26.230469 16.125 26.78125 16.125 Z M 14.867188 19.664062 C 11.699219 19.664062 9.128906 17.097656 9.128906 13.929688 C 9.128906 10.761719 11.699219 8.191406 14.867188 8.191406 C 18.035156 8.191406 20.601562 10.761719 20.601562 13.929688 C 20.601562 17.097656 18.035156 19.664062 14.867188 19.664062 Z M 14.867188 19.664062 " fill-opacity="1" fill-rule="nonzero"/></g><g fill="#ffffff" fill-opacity="1"><g transform="translate(36.624941, 17.607095)"><g><path d="M 6.140625 -1.359375 L 6.140625 0 L 2.046875 0 L 2.046875 -1.359375 Z M 0.6875 -1.359375 L 0.6875 -8.1875 L 2.046875 -8.1875 L 2.046875 -1.359375 Z M 2.046875 -8.1875 L 2.046875 -9.546875 L 6.140625 -9.546875 L 6.140625 -8.1875 Z M 6.140625 -1.359375 L 6.140625 -8.1875 L 7.5 -8.1875 L 7.5 -1.359375 Z M 6.140625 -1.359375 "/></g></g></g><g fill="#ffffff" fill-opacity="1"><g transform="translate(44.810375, 17.607095)"><g><path d="M 0.6875 2.734375 L 0.6875 -6.828125 L 6.140625 -6.828125 L 6.140625 -5.453125 L 2.046875 -5.453125 L 2.046875 -1.359375 L 6.140625 -1.359375 L 6.140625 0 L 2.046875 0 L 2.046875 2.734375 Z M 6.140625 -1.359375 L 6.140625 -5.453125 L 7.5 -5.453125 L 7.5 -1.359375 Z M 6.140625 -1.359375 "/></g></g></g><g fill="#ffffff" fill-opacity="1"><g transform="translate(52.995808, 17.607095)"><g><path d="M 0.6875 -1.359375 L 0.6875 -9.546875 L 2.046875 -9.546875 L 2.046875 -6.828125 L 4.78125 -6.828125 L 4.78125 -5.453125 L 2.046875 -5.453125 L 2.046875 -1.359375 Z M 2.046875 0 L 2.046875 -1.359375 L 4.78125 -1.359375 L 4.78125 0 Z M 2.046875 0 "/></g></g></g><g fill="#ffffff" fill-opacity="1"><g transform="translate(58.452768, 17.607095)"><g><path d="M 0.6875 0 L 0.6875 -6.828125 L 2.046875 -6.828125 L 2.046875 0 Z M 0.6875 -8.1875 L 0.6875 -9.546875 L 2.046875 -9.546875 L 2.046875 -8.1875 Z M 0.6875 -8.1875 "/></g></g></g><g fill="#ffffff" fill-opacity="1"><g transform="translate(61.181242, 17.607095)"><g><path d="M 6.140625 -1.359375 L 6.140625 0 L 2.046875 0 L 2.046875 -1.359375 Z M 0.6875 -1.359375 L 0.6875 -5.453125 L 2.046875 -5.453125 L 2.046875 -1.359375 Z M 2.046875 -5.453125 L 2.046875 -6.828125 L 6.140625 -6.828125 L 6.140625 -5.453125 Z M 6.140625 -1.359375 L 6.140625 -5.453125 L 7.5 -5.453125 L 7.5 -1.359375 Z M 6.140625 -1.359375 "/></g></g></g><g fill="#ffffff" fill-opacity="1"><g transform="translate(69.366676, 17.607095)"><g><path d="M 6.140625 0 L 6.140625 -5.453125 L 7.5 -5.453125 L 7.5 0 Z M 0.6875 0 L 0.6875 -5.453125 L 2.046875 -5.453125 L 2.046875 0 Z M 2.046875 -5.453125 L 2.046875 -6.828125 L 6.140625 -6.828125 L 6.140625 -5.453125 Z M 2.046875 -5.453125 "/></g></g></g><g fill="#ffffff" fill-opacity="1"><g transform="translate(77.55211, 17.607095)"><g><path d="M 2.046875 -5.453125 L 2.046875 -4.09375 L 0.6875 -4.09375 L 0.6875 -5.453125 Z M 0.6875 0 L 0.6875 -1.359375 L 4.78125 -1.359375 L 4.78125 0 Z M 2.046875 -2.734375 L 2.046875 -4.09375 L 4.78125 -4.09375 L 4.78125 -2.734375 Z M 2.046875 -5.453125 L 2.046875 -6.828125 L 6.140625 -6.828125 L 6.140625 -5.453125 Z M 4.78125 -1.359375 L 4.78125 -2.734375 L 6.140625 -2.734375 L 6.140625 -1.359375 Z M 4.78125 -1.359375 "/></g></g></g></svg>